<?xml version="1.0" encoding="UTF-8"?>
<svg version="1.1" xmlns="http://www.w3.org/2000/svg" width="1024" height="1024">
<path d="M0 0 C1.08391525 -0.00018127 1.08391525 -0.00018127 2.18972778 -0.00036621 C18.92912769 0.03934055 34.81659338 1.72860948 50.3125 8.375 C51.62856933 8.91098428 52.94495135 9.44620173 54.26171875 9.98046875 C73.27649909 17.93601475 90.97894988 29.43823434 105.3125 44.375 C105.3125 45.035 105.3125 45.695 105.3125 46.375 C105.9725 46.375 106.6325 46.375 107.3125 46.375 C127.62990183 68.84135779 139.58257566 99.17932043 138.21484375 129.54296875 C137.62571447 137.71524929 136.01812985 145.34368015 133.1171875 153.01953125 C132.15085952 155.43329695 132.15085952 155.43329695 132.3125 158.375 C131.6525 158.375 130.9925 158.375 130.3125 158.375 C130.126875 159.15875 129.94125 159.9425 129.75 160.75 C125.1440196 172.36508101 115.5182562 182.41807619 105.3125 189.375 C104.6215625 189.85066406 103.930625 190.32632813 103.21875 190.81640625 C94.79087965 195.78706922 84.83539486 196.23145013 75.3125 197.375 C22.86702419 202.79877194 22.86702419 202.79877194 -21.6875 228.375 C-26.83406093 235.81445974 -28.5143822 242.37379663 -27.6875 251.375 C-24.5002261 264.4697036 -14.86857039 271.28141886 -3.98535156 278.05737305 C3.08283807 282.29209943 10.19126029 285.66672357 17.875 288.625 C19.05376709 289.08390625 20.23253418 289.5428125 21.44702148 290.015625 C39.63986178 296.99798607 58.43718877 302.87610438 77.28881836 307.796875 C79.3125 308.375 79.3125 308.375 81.3125 309.375 C82.28574219 309.81972656 83.25898437 310.26445312 84.26171875 310.72265625 C91.77785657 314.16457825 99.13164318 317.75643221 106.29956055 321.88500977 C109.79175687 323.82971967 112.29986214 324.80654785 116.3125 324.375 C116.3125 325.365 116.3125 326.355 116.3125 327.375 C118.65965761 329.25656355 118.65965761 329.25656355 121.6875 331.0625 C156.91387337 353.79317033 185.75905216 391.08147876 195.3125 432.375 C195.3125 433.695 195.3125 435.015 195.3125 436.375 C195.9725 436.705 196.6325 437.035 197.3125 437.375 C198.33561817 441.63799238 198.74493037 446.03090936 199.3125 450.375 C199.50070312 451.60605469 199.68890625 452.83710937 199.8828125 454.10546875 C206.78584725 503.35035752 192.53827504 549.26533579 162.9140625 588.6015625 C160.79147293 591.2764988 158.59502713 593.83512912 156.3125 596.375 C155.80783203 596.93848145 155.30316406 597.50196289 154.78320312 598.08251953 C133.11309779 622.14847374 107.95014947 641.21345081 79.3125 656.375 C78.72355957 656.69597656 78.13461914 657.01695312 77.52783203 657.34765625 C32.26547605 681.96599245 -16.85656291 689.08714806 -67.6875 688.375 C-67.6875 687.715 -67.6875 687.055 -67.6875 686.375 C-68.58339844 686.43558594 -69.47929687 686.49617187 -70.40234375 686.55859375 C-76.17911752 686.55714047 -81.68877009 684.85290913 -87.25 683.4375 C-89.45917754 682.88488507 -91.6688001 682.33404557 -93.87890625 681.78515625 C-94.85029541 681.53902588 -95.82168457 681.29289551 -96.82250977 681.03930664 C-99.76434697 680.35718146 -102.70445291 679.84091986 -105.6875 679.375 C-105.6875 678.715 -105.6875 678.055 -105.6875 677.375 C-106.8425 677.065625 -107.9975 676.75625 -109.1875 676.4375 C-125.68881326 670.88517132 -141.77501547 658.8521847 -153.6875 646.375 C-153.6875 645.715 -153.6875 645.055 -153.6875 644.375 C-154.3475 644.375 -155.0075 644.375 -155.6875 644.375 C-157.31312751 642.5803564 -158.78662948 640.79693952 -160.25 638.875 C-160.69110107 638.29621094 -161.13220215 637.71742188 -161.58666992 637.12109375 C-169.3227873 626.70490999 -179.6875 611.70452137 -179.6875 598.375 C-180.6775 598.045 -181.6675 597.715 -182.6875 597.375 C-182.0275 597.375 -181.3675 597.375 -180.6875 597.375 C-180.92146484 595.88613281 -180.92146484 595.88613281 -181.16015625 594.3671875 C-184.24537823 573.45767887 -181.06062135 554.55918441 -168.9609375 536.84765625 C-167.28223986 534.60556008 -165.53276633 532.48157855 -163.6875 530.375 C-163.10613281 529.69953125 -162.52476562 529.0240625 -161.92578125 528.328125 C-144.26239365 509.22056106 -118.90890664 505.68743975 -94.5625 502.4375 C-40.51842714 496.27965834 -40.51842714 496.27965834 3.9765625 468.32421875 C8.75240176 461.35596205 9.33460843 454.63049113 8.3125 446.375 C4.08585281 432.44271853 -8.77608861 424.70755716 -20.90917969 418.1796875 C-41.16314852 407.66695357 -62.79673605 400.24188368 -84.44317627 393.18954468 C-107.00103068 385.83548718 -129.12505958 377.36668212 -149.6875 365.375 C-150.34572754 364.99166504 -151.00395508 364.60833008 -151.68212891 364.21337891 C-166.75562509 355.32630435 -180.629826 345.00048206 -193.19677734 332.81884766 C-194.6371267 331.42378934 -196.09369733 330.04553922 -197.55078125 328.66796875 C-219.43312407 307.52844945 -243.50552899 272.74230423 -244.8125 241.375 C-244.77125 240.715 -244.73 240.055 -244.6875 239.375 C-245.3475 239.045 -246.0075 238.715 -246.6875 238.375 C-247.51836943 196.66215917 -247.51836943 196.66215917 -242.6875 181.375 C-242.336875 180.17617188 -241.98625 178.97734375 -241.625 177.7421875 C-231.68204221 146.87758935 -208.90808068 122.28698297 -180.5 107.375 C-179.07030387 106.64330048 -177.63939888 105.91395591 -176.20703125 105.1875 C-172.70224577 103.46586639 -172.70224577 103.46586639 -169.6875 101.375 C-163.29589865 99.24446622 -156.77293511 97.592224 -150.1875 96.18359375 C-141.39249395 94.10927762 -133.91969246 92.28486068 -128.89013672 84.31298828 C-127.17441735 81.17622153 -125.57084162 77.99154051 -123.98876953 74.78564453 C-121.77422432 70.68312681 -118.9430742 67.08974491 -116.0625 63.4375 C-115.23540527 62.38030762 -115.23540527 62.38030762 -114.39160156 61.30175781 C-113.32447992 59.94563738 -112.2531774 58.59279394 -111.17724609 57.24365234 C-109.82102801 55.5424899 -108.48087331 53.83006135 -107.14453125 52.11328125 C-103.32245405 47.29128024 -99.45275047 42.97730227 -94.7109375 39.05078125 C-92.50943082 37.22752571 -90.41857627 35.30741735 -88.3125 33.375 C-76.1050815 22.5609325 -61.93190689 15.07595855 -46.98828125 8.8203125 C-43.63672659 7.46709623 -43.63672659 7.46709623 -40.6875 5.375 C-37.70039062 4.46886849 -34.63407922 3.97928001 -31.5625 3.4375 C-27.58488269 2.74200271 -27.58488269 2.74200271 -23.64233398 1.87597656 C-15.80669592 0.0557491 -8.00140071 -0.02052314 0 0 Z " fill="#776EF0" transform="translate(513.6875,163.625)"/>
<path d="M0 0 C0.99 0.495 0.99 0.495 2 1 C-9.29994875 7.97938011 -22.12328127 12.33935452 -34.99609375 15.48828125 C-37.17932155 16.04579166 -39.29496978 16.74018409 -41.4375 17.4375 C-46.57411496 18.99982354 -51.70844576 19.83284143 -57.01953125 20.5703125 C-59.7079038 20.95788915 -62.34107025 21.45017285 -65 22 C-71.72382413 23.25359433 -78.46646989 24.20326601 -85.25048828 25.05908203 C-111.46192809 28.36591352 -137.18001224 33.86547012 -154.41796875 55.8046875 C-155.33775126 57.16497887 -156.17466224 58.58041905 -157 60 C-157.495 60.78375 -157.99 61.5675 -158.5 62.375 C-158.995 63.24125 -159.49 64.1075 -160 65 C-160.3196875 65.55042969 -160.639375 66.10085938 -160.96875 66.66796875 C-167.87186274 79.3498236 -170.3042398 96.9146188 -167 111 C-166.71382813 112.23492188 -166.42765625 113.46984375 -166.1328125 114.7421875 C-165.79821022 116.12011658 -165.46224185 117.49771456 -165.125 118.875 C-164.96386719 119.55691406 -164.80273438 120.23882813 -164.63671875 120.94140625 C-163.78272956 124.41694365 -162.80297647 127.53126419 -161.2421875 130.7578125 C-160 134 -160 134 -160.8125 136.4375 C-161.204375 136.953125 -161.59625 137.46875 -162 138 C-169 122.98473282 -169 122.98473282 -169 117 C-169.99 116.67 -170.98 116.34 -172 116 C-171.34 116 -170.68 116 -170 116 C-170.15597656 115.00742187 -170.31195313 114.01484375 -170.47265625 112.9921875 C-173.55787823 92.08267887 -170.37312135 73.18418441 -158.2734375 55.47265625 C-156.59473986 53.23056008 -154.84526633 51.10657855 -153 49 C-152.41863281 48.32453125 -151.83726562 47.6490625 -151.23828125 46.953125 C-133.57489365 27.84556106 -108.22140664 24.31243975 -83.875 21.0625 C-60.20326669 17.9018383 -36.27142309 13.96562748 -14 5 C-12.69426074 4.66035684 -11.38162227 4.34574711 -10.0625 4.0625 C-7.23149047 3.39889852 -5.29328697 2.64664349 -2.625 1.3125 C-1.75875 0.879375 -0.8925 0.44625 0 0 Z " fill="#A54CBD" transform="translate(503,645)"/>
<path d="M0 0 C7.22459464 1.82351547 13.88032668 4.58367295 20.640625 7.66235352 C24.17699785 9.39489397 24.17699785 9.39489397 28 10 C28 10.66 28 11.32 28 12 C28.83144531 12.25394531 29.66289062 12.50789062 30.51953125 12.76953125 C34.41004786 14.14496641 38.00752613 15.83333888 41.6875 17.6875 C42.73599121 18.2127124 42.73599121 18.2127124 43.80566406 18.74853516 C48.99457548 21.3906174 53.92022994 24.31940819 58.765625 27.5546875 C60.7942534 28.86691216 62.81781914 29.9689696 65 31 C65 31.66 65 32.32 65 33 C65.52980469 33.23460937 66.05960938 33.46921875 66.60546875 33.7109375 C75.26856083 38.37459229 82.97460426 45.29275836 89 53 C89.65484375 53.79277344 90.3096875 54.58554687 90.984375 55.40234375 C102.49279218 69.44174741 102.49279218 69.44174741 103.53515625 74.69921875 C103.68855469 75.45847656 103.84195313 76.21773437 104 77 C104.66 77.33 105.32 77.66 106 78 C106 78.99 106 79.98 106 81 C106.66 81.33 107.32 81.66 108 82 C110.80364594 88.46057543 112.41451571 95.15396012 114 102 C114.28230469 103.18851563 114.56460938 104.37703125 114.85546875 105.6015625 C116.30019767 111.93666492 117.20885882 117.52537666 117 124 C117.17383518 125.87631623 117.36279879 127.75126024 117.5625 129.625 C118.36192364 138.49747651 117.52580137 147.24671844 116 156 C115.68586345 158.10392296 115.37340686 160.20809735 115.0625 162.3125 C113.71453393 171.07927195 112.2887003 179.70421076 108.125 187.625 C106.35986672 191.01848501 105.18921851 194.40864765 104.0625 198.0625 C102.4080092 203.25485451 100.31971409 206.71931604 97 211 C96.33096052 212.66571558 95.66453647 214.33248283 95 216 C91.3961546 222.27582576 87.27344882 228.1095871 82.74609375 233.74609375 C80.89513083 236.13536803 79.2360902 238.60892222 77.5625 241.125 C74.77006453 245.16684732 71.7857872 248.22829645 67.9921875 251.328125 C65.2784355 253.60554824 62.8765035 256.14230444 60.4453125 258.71484375 C59 260 59 260 57 260 C57 260.66 57 261.32 57 262 C54.98828125 263.3671875 54.98828125 263.3671875 52.3125 264.875 C49.4058748 266.5534737 46.81432076 268.1485434 44.1875 270.25 C41.84383126 272.124935 39.87957998 273.16643737 37 274 C36.01 273.67 35.02 273.34 34 273 C35.45019531 272.1646875 35.45019531 272.1646875 36.9296875 271.3125 C44.79030747 266.7295854 52.12372324 262.00171056 59 256 C60.44826172 254.76830078 60.44826172 254.76830078 61.92578125 253.51171875 C69.35665411 247.05968512 75.33058781 240.02159085 81 232 C81.40428223 231.43861328 81.80856445 230.87722656 82.22509766 230.29882812 C107.03806375 195.64132019 119.28119015 153.46828723 113.28125 110.87890625 C107.63799768 78.63260684 89.89898481 52.43681914 63.57421875 33.5078125 C46.62905044 21.65358625 27.76202599 13.46023924 8.8581543 5.28344727 C5.86059739 3.9374016 2.92905683 2.48853708 0 1 C0 0.67 0 0.34 0 0 Z " fill="#4484F8" transform="translate(462,543)"/>
<path d="M0 0 C1.98 0.495 1.98 0.495 4 1 C4 1.66 4 2.32 4 3 C5.134375 3.268125 6.26875 3.53625 7.4375 3.8125 C12.04705135 4.96078681 16.51226481 6.45097898 21 8 C21.99 8.33 22.98 8.66 24 9 C24.47276367 9.47695313 24.94552734 9.95390625 25.43261719 10.4453125 C27.22478675 12.22296605 28.74612785 12.9283788 31.078125 13.875 C31.89772705 14.2145874 32.7173291 14.5541748 33.56176758 14.90405273 C34.44888428 15.26571533 35.33600098 15.62737793 36.25 16 C73.67678689 31.70015087 112.95812091 52.13596853 129.625 91.75 C136.29276635 108.42764261 139.23541191 124.92769751 139.25 142.875 C139.25067474 143.61776184 139.25134949 144.36052368 139.25204468 145.12579346 C139.23621958 156.07587363 138.70522861 166.34270826 136 177 C135.6545345 178.53216629 135.31087619 180.06474085 134.96875 181.59765625 C132.30169818 193.04080506 128.20281652 203.48269675 123 214 C122.69803711 214.61101562 122.39607422 215.22203125 122.08496094 215.8515625 C116.9788466 226.02956024 111.2814986 236.09102556 103 244 C104.30710813 240.42597488 105.88412294 237.49002567 108.0625 234.375 C109.83987829 231.82843844 111.01065939 229.96802184 112 227 C114 225 114 225 116 224 C116.28875 223.13375 116.5775 222.2675 116.875 221.375 C117.9058739 218.2823783 119.26102577 215.84113593 120.921875 213.05859375 C122.66821001 209.72410625 123.83932449 206.19897318 125.0703125 202.6484375 C127.70304114 195.14847943 127.70304114 195.14847943 130 194 C130.42632894 191.545648 130.75015087 189.16054371 131 186.6875 C131.43726032 182.43230925 131.8782572 178.78568217 134 175 C134.04063832 173.33382885 134.042721 171.66611905 134 170 C134.33 169.01 134.66 168.02 135 167 C135.20076251 164.8362263 135.3632314 162.66875922 135.5 160.5 C135.71681305 157.06196442 135.90942268 154.27173195 137 151 C137.33734244 143.28081133 137.10763738 135.64269793 136 128 C135.84273437 126.83855469 135.68546875 125.67710937 135.5234375 124.48046875 C134.52784015 117.26610284 133.2201612 110.59262912 131.125 103.625 C130.63386719 101.97371094 130.63386719 101.97371094 130.1328125 100.2890625 C128.99994715 96.99984657 127.60829458 94.08157184 126 91 C125.16662109 89.26363281 125.16662109 89.26363281 124.31640625 87.4921875 C123.73183487 86.28642729 123.14719889 85.08069839 122.5625 83.875 C122.13227539 82.96427734 122.13227539 82.96427734 121.69335938 82.03515625 C119.89491907 78.35816693 117.9411736 75.81003848 115 73 C114.67 72.01 114.34 71.02 114 70 C112.69205669 68.64175118 111.35099103 67.31543863 110 66 C108.84756279 64.67237043 107.70231808 63.33847919 106.5625 62 C103.91016223 58.94784062 101.24407718 56.43305788 98 54 C96.23886776 52.4664971 94.4892269 50.9211122 92.74609375 49.3671875 C91.04885433 47.93473665 91.04885433 47.93473665 89.03515625 47.0703125 C87 46 87 46 85.12109375 44.1015625 C82.64397904 41.64725732 80.08578837 40.10586118 77.0625 38.375 C75.53302734 37.48941406 75.53302734 37.48941406 73.97265625 36.5859375 C71.35374783 35.18872749 68.778666 34.03368422 66 33 C66 32.34 66 31.68 66 31 C62.68885166 29.87119943 59.41021743 28.78697325 56 28 C56 27.34 56 26.68 56 26 C55.360625 25.896875 54.72125 25.79375 54.0625 25.6875 C49.93522674 24.76096927 45.99357051 23.38339371 42 22 C42 21.34 42 20.68 42 20 C36.69905784 18.19695845 31.39691512 16.49276376 26 15 C26 14.34 26 13.68 26 13 C24.1746875 12.4121875 24.1746875 12.4121875 22.3125 11.8125 C5.66464645 6.24562662 5.66464645 6.24562662 -1 2 C-0.67 1.34 -0.34 0.68 0 0 Z " fill="#591598" transform="translate(438,533)"/>
<path d="M0 0 C19.79275851 -0.82289368 40.59139493 14.58150953 55 27 C55.82346924 27.70600342 55.82346924 27.70600342 56.66357422 28.42626953 C63.16699374 34.04557919 63.16699374 34.04557919 66 37 C66 37.66 66 38.32 66 39 C66.66 39 67.32 39 68 39 C88.31740183 61.46635779 100.27007566 91.80432043 98.90234375 122.16796875 C98.25216156 131.18716277 96.28757038 139.57360601 93 148 C92.34 148 91.68 148 91 148 C90.71125 148.94875 90.4225 149.8975 90.125 150.875 C89 154 89 154 87 156 C87 153.69 87 151.38 87 149 C87.99 149 88.98 149 90 149 C90.185625 147.4840625 90.185625 147.4840625 90.375 145.9375 C90.97648084 142.14817073 91.93884082 138.68284655 93 135 C99.34528304 112.94258752 93.61393214 86.63194691 82.875 66.8125 C81.92618495 65.20268527 80.96919155 63.59762987 80 62 C79.401875 60.865625 78.80375 59.73125 78.1875 58.5625 C74.612956 52.35248711 69.96673213 44.97782142 64 41 C63.67 40.01 63.34 39.02 63 38 C61.53733856 36.73203245 61.53733856 36.73203245 59.75 35.625 C56.44265353 33.3733318 53.83523669 30.83523669 51 28 C37.31450776 15.66923326 21.19646164 7.96479267 3.70703125 2.67578125 C2 2 2 2 0 0 Z " fill="#A399F5" transform="translate(553,171)"/>
<path d="M0 0 C0.66 1.32 1.32 2.64 2 4 C2.66 4 3.32 4 4 4 C13 25.84466019 13 25.84466019 13 33 C13.66 33.33 14.32 33.66 15 34 C16.02311817 38.26299238 16.43243037 42.65590936 17 47 C17.18820312 48.23105469 17.37640625 49.46210937 17.5703125 50.73046875 C22.80505109 88.07406168 16.73106677 128.4015904 -3 161 C-3.66 161.33 -4.32 161.66 -5 162 C-3.44129857 155.82457336 -1.24026238 150.09993992 1.375 144.3125 C4.81301353 136.69597771 7.51297786 128.97680834 10 121 C10.66 121 11.32 121 12 121 C13.90098258 111.26041247 14.70645357 101.57580928 15.25 91.6875 C15.29391876 90.89453522 15.33783752 90.10157043 15.38308716 89.28457642 C16.63976741 65.6100061 15.13199582 41.33340461 5.87841797 19.20727539 C4.85241356 16.62914702 4.21848514 14.10783 3.75 11.375 C3.60046875 10.53710938 3.4509375 9.69921875 3.296875 8.8359375 C3.19890625 8.23007812 3.1009375 7.62421875 3 7 C2.34 7 1.68 7 1 7 C0.67 4.69 0.34 2.38 0 0 Z " fill="#58A1EE" transform="translate(696,567)"/>
<path d="M0 0 C3.29257586 0.58273767 6.21124243 1.37985503 9.2890625 2.6796875 C21.44772113 7.68414114 33.70455649 11.96331349 46.25 15.875 C46.99985168 16.1094281 47.74970337 16.3438562 48.52227783 16.58538818 C56.30530736 19.01216657 64.09630656 21.37016438 71.98730469 23.42626953 C74 24 74 24 76 25 C76.97324219 25.44472656 77.94648437 25.88945312 78.94921875 26.34765625 C86.46535657 29.78957825 93.81914318 33.38143221 100.98706055 37.51000977 C104.47925687 39.45471967 106.98736214 40.43154785 111 40 C111 40.99 111 41.98 111 43 C113.91597658 45.16098729 116.98355358 46.9792262 120.08203125 48.8671875 C123.04385384 51.03205381 124.38563546 52.74861318 126 56 C123.17861734 54.63051988 120.4834041 53.14363329 117.8125 51.5 C117.11769531 51.0771875 116.42289063 50.654375 115.70703125 50.21875 C114 49 114 49 113 47 C111.34235055 46.31121808 109.673985 45.64807133 108 45 C106.39969443 44.048825 104.81647217 43.06842085 103.25 42.0625 C98.66592457 39.24735458 94.17347557 37.42458023 89 36 C89 35.34 89 34.68 89 34 C88.42507813 33.86207031 87.85015625 33.72414063 87.2578125 33.58203125 C81.82087246 32.18046712 76.56276253 30.26062891 71.375 28.125 C60.85230221 23.86036627 50.06566456 20.53459356 39 18 C39 17.34 39 16.68 39 16 C38.154375 16.061875 37.30875 16.12375 36.4375 16.1875 C33.11608829 16.00633209 30.98925931 15.272319 28.01171875 13.8671875 C24.14153637 12.19887587 20.0489175 11.14868686 16 10 C16 9.34 16 8.68 16 8 C14.35 8 12.7 8 11 8 C11 7.34 11 6.68 11 6 C9.35 5.67 7.7 5.34 6 5 C6 4.34 6 3.68 6 3 C4.02 2.34 2.04 1.68 0 1 C0 0.67 0 0.34 0 0 Z " fill="#5187E8" transform="translate(519,448)"/>
<path d="M0 0 C0.99 0.33 1.98 0.66 3 1 C-14.76274612 25.46444154 -40.67338848 44.91568979 -70.86328125 50.74609375 C-74.91266264 51.32686556 -78.91954436 51.74015293 -83 52 C-84.05743408 52.06791748 -84.05743408 52.06791748 -85.13623047 52.13720703 C-108.00491404 53.36571127 -128.20762433 47.12877948 -147.23046875 34.69921875 C-149.90377628 32.94363216 -149.90377628 32.94363216 -152.6875 31.96484375 C-156.26924068 30.47043506 -157.67882026 28.05069337 -160 25 C-155.98209075 25 -154.85410699 26.48957468 -151.75 29 C-142.66060043 36.09451035 -132.23181403 42.14503357 -121 45 C-119.21916016 45.52400391 -119.21916016 45.52400391 -117.40234375 46.05859375 C-104.28230212 49.6453566 -86.08914311 52.3630477 -73 48 C-71.52312146 47.71695497 -70.04357049 47.44772092 -68.5625 47.1875 C-58.9099598 45.27387687 -50.43583087 42.00113993 -42 37 C-40.08674674 35.95207705 -38.16995361 34.91059581 -36.25 33.875 C-29.7038109 30.90773692 -29.7038109 30.90773692 -25 26 C-24.01 25.67 -23.02 25.34 -22 25 C-21.67 24.34 -21.34 23.68 -21 23 C-20.34 23 -19.68 23 -19 23 C-18.67 22.01 -18.34 21.02 -18 20 C-17.4225 19.731875 -16.845 19.46375 -16.25 19.1875 C-13.90325051 17.94893777 -12.99635748 16.92328297 -11.375 14.875 C-10.59125 13.92625 -9.8075 12.9775 -9 12 C-8.34 12 -7.68 12 -7 12 C-6.731875 11.443125 -6.46375 10.88625 -6.1875 10.3125 C-4.42337578 6.87710021 -2.74206894 3.74206894 0 1 C0 0.67 0 0.34 0 0 Z " fill="#C757DD" transform="translate(539,776)"/>
<path d="M0 0 C7.22459464 1.82351547 13.88032668 4.58367295 20.640625 7.66235352 C24.17699785 9.39489397 24.17699785 9.39489397 28 10 C28 10.66 28 11.32 28 12 C28.83144531 12.25394531 29.66289062 12.50789062 30.51953125 12.76953125 C34.41004786 14.14496641 38.00752613 15.83333888 41.6875 17.6875 C42.73599121 18.2127124 42.73599121 18.2127124 43.80566406 18.74853516 C48.99457548 21.3906174 53.92022994 24.31940819 58.765625 27.5546875 C60.7942534 28.86691216 62.81781914 29.9689696 65 31 C65 31.66 65 32.32 65 33 C65.52980469 33.23460937 66.05960938 33.46921875 66.60546875 33.7109375 C75.26856083 38.37459229 82.97460426 45.29275836 89 53 C89.65484375 53.79277344 90.3096875 54.58554687 90.984375 55.40234375 C102.49279218 69.44174741 102.49279218 69.44174741 103.53515625 74.69921875 C103.68855469 75.45847656 103.84195313 76.21773437 104 77 C104.66 77.33 105.32 77.66 106 78 C106 78.99 106 79.98 106 81 C106.66 81.33 107.32 81.66 108 82 C110.80493652 88.46354938 112.40087193 95.1547528 114 102 C114.29390625 103.15371094 114.5878125 104.30742188 114.890625 105.49609375 C116.70065073 113.00770055 117.2937282 119.36232752 116 127 C115.67 127 115.34 127 115 127 C114.90295776 126.13387085 114.90295776 126.13387085 114.80395508 125.25024414 C110.7399879 90.02803244 98.29362198 60.94292682 70.171875 38.39453125 C51.33934984 24.17736632 30.426641 14.61280751 8.8581543 5.28344727 C5.86059739 3.9374016 2.92905683 2.48853708 0 1 C0 0.67 0 0.34 0 0 Z " fill="#4B91F9" transform="translate(462,543)"/>
<path d="M0 0 C5.75 0.875 5.75 0.875 8 2 C8.33 1.34 8.66 0.68 9 0 C12.875 1.75 12.875 1.75 14 4 C15.93317905 4.97874565 15.93317905 4.97874565 18.3125 5.84765625 C19.66686157 6.37818604 19.66686157 6.37818604 21.04858398 6.91943359 C22.02255127 7.29664551 22.99651855 7.67385742 24 8.0625 C33.45239158 11.81145895 42.32523521 16.14511241 51.20629883 21.07299805 C52.95206123 21.97522478 54.77849759 22.71564274 56.6015625 23.44921875 C60.35050563 25.15994337 62.8995776 27.16628135 65.9375 29.9375 C66.89527344 30.79214844 67.85304688 31.64679687 68.83984375 32.52734375 C71 35 71 35 71 39 C71.86625 39.2784375 71.86625 39.2784375 72.75 39.5625 C76.12558468 41.71912355 77.83268682 44.24372967 79 48 C79.54114415 57.06101825 76.96550942 64.55173587 72 72 C70.515 71.505 70.515 71.505 69 71 C69.3609375 70.42894531 69.721875 69.85789062 70.09375 69.26953125 C74.14822731 62.1854584 75.21447664 56.09319269 74 48 C69.71630054 34.06815176 56.92091027 26.29442426 44.72998047 19.78857422 C30.30125777 12.36345625 15.20210806 6.62103865 0 1 C0 0.67 0 0.34 0 0 Z " fill="#623BBA" transform="translate(448,562)"/>
<path d="M0 0 C3.23444837 2.63938665 4.4775083 6.02246899 5.9375 9.8125 C6.19692383 10.48265137 6.45634766 11.15280273 6.72363281 11.84326172 C15.51427883 34.98542711 18.63728774 60.56174195 9 84 C8.34 84 7.68 84 7 84 C6.71125 84.94875 6.4225 85.8975 6.125 86.875 C5 90 5 90 3 92 C3 89.69 3 87.38 3 85 C3.99 85 4.98 85 6 85 C6.12375 83.989375 6.2475 82.97875 6.375 81.9375 C6.97648084 78.14817073 7.93884082 74.68284655 9 71 C14.17974446 52.99422163 10.51476594 34.26420725 4.91015625 16.875 C4.1414052 14.44667052 3.4703134 12.03750376 2.875 9.5625 C2.07389462 6.30085667 1.10890399 3.16829711 0 0 Z " fill="#8378E0" transform="translate(637,235)"/>
<path d="M0 0 C1.98 0.99 1.98 0.99 4 2 C4 2.66 4 3.32 4 4 C4.5775 4.20625 5.155 4.4125 5.75 4.625 C8 6 8 6 9.875 9 C12.34319375 12.48450883 13.91734219 13.07212323 18 14 C18 14.66 18 15.32 18 16 C18.66 16 19.32 16 20 16 C20 16.66 20 17.32 20 18 C20.58007812 18.28488281 21.16015625 18.56976562 21.7578125 18.86328125 C23.83514127 19.91642179 25.85197727 21.03429833 27.875 22.1875 C39.40748712 28.58812504 50.91008809 34.58558587 64 37 C64 37.66 64 38.32 64 39 C64.639375 38.814375 65.27875 38.62875 65.9375 38.4375 C66.618125 38.293125 67.29875 38.14875 68 38 C68.33 38.33 68.66 38.66 69 39 C71.3452769 39.55950364 73.70155796 40.07329579 76.0625 40.5625 C77.35285156 40.83191406 78.64320313 41.10132813 79.97265625 41.37890625 C80.97167969 41.58386719 81.97070312 41.78882813 83 42 C83 42.33 83 42.66 83 43 C77.22574985 43.2554293 72.21146009 42.36235141 66.625 40.9375 C65.31595703 40.60685547 65.31595703 40.60685547 63.98046875 40.26953125 C55.94016306 38.14567692 48.42900804 35.16508324 40.84423828 31.79052734 C39.2012591 31.08626912 37.52189266 30.46831986 35.83984375 29.86328125 C26.29751274 26.40852076 18.79411687 20.33877529 11 14 C10.44876465 13.55479004 9.8975293 13.10958008 9.32958984 12.65087891 C0.60449375 5.51720485 0.60449375 5.51720485 0 0 Z " fill="#823EBF" transform="translate(359,805)"/>
<path d="M0 0 C0.99 0.495 0.99 0.495 2 1 C-9.29994875 7.97938011 -22.12328127 12.33935452 -34.99609375 15.48828125 C-37.17932155 16.04579166 -39.29496978 16.74018409 -41.4375 17.4375 C-46.57411496 18.99982354 -51.70844576 19.83284143 -57.01953125 20.5703125 C-59.7079038 20.95788915 -62.34107025 21.45017285 -65 22 C-71.72382413 23.25359433 -78.46646989 24.20326601 -85.25048828 25.05908203 C-104.59085079 27.18474342 -104.59085079 27.18474342 -123 33 C-125.9375 33.6875 -125.9375 33.6875 -128 34 C-120.4845296 24.6315862 -99.80885733 24.41152458 -88.82022095 22.97485352 C-59.23870728 19.08110065 -29.19560741 14.64290286 -2.30078125 0.96875 C-1.54152344 0.6490625 -0.78226562 0.329375 0 0 Z " fill="#D25FE3" transform="translate(503,645)"/>
<path d="M0 0 C2 2 2 2 2.15234375 4.73828125 C0.33289894 35.00722676 -11.74323088 71.58455205 -34 93 C-32.69289187 89.42597488 -31.11587706 86.49002567 -28.9375 83.375 C-27.16012171 80.82843844 -25.98934061 78.96802184 -25 76 C-23 74 -23 74 -21 73 C-20.71125 72.13375 -20.4225 71.2675 -20.125 70.375 C-19.0941261 67.2823783 -17.73897423 64.84113593 -16.078125 62.05859375 C-14.33178999 58.72410625 -13.16067551 55.19897318 -11.9296875 51.6484375 C-9.29695886 44.14847943 -9.29695886 44.14847943 -7 43 C-6.57367106 40.545648 -6.24984913 38.16054371 -6 35.6875 C-5.56273968 31.43230925 -5.1217428 27.78568217 -3 24 C-2.95936168 22.33382885 -2.957279 20.66611905 -3 19 C-2.67 18.01 -2.34 17.02 -2 16 C-1.79923749 13.8362263 -1.6367686 11.66875922 -1.5 9.5 C-1.28318695 6.06196442 -1.09057732 3.27173195 0 0 Z " fill="#802EB4" transform="translate(575,684)"/>
<path d="M0 0 C4.08769878 1.48643592 7.59799862 3.49772889 11.3125 5.75 C33.9385224 18.96005593 59.41795726 22.02412863 85 17 C91.44634397 15.30115516 97.69688956 13.04037022 103.78125 10.3203125 C107 9 107 9 109.4375 9.3125 C109.953125 9.539375 110.46875 9.76625 111 10 C110.34 10 109.68 10 109 10 C108.67 10.66 108.34 11.32 108 12 C102.43408939 14.285999 96.71509798 16.12442661 91 18 C90.04738281 18.33644531 89.09476562 18.67289063 88.11328125 19.01953125 C79.32148786 21.78833946 70.15874563 22.38840098 61 22 C59.94425781 21.97035156 58.88851562 21.94070313 57.80078125 21.91015625 C41.98374791 21.17070543 27.26730564 17.00770325 13.3125 9.625 C12.57966797 9.25117187 11.84683594 8.87734375 11.09179688 8.4921875 C6.64287408 6.14938235 3.35843067 3.74925396 0 0 Z " fill="#7054E3" transform="translate(387,808)"/>
<path d="M0 0 C0.33 0 0.66 0 1 0 C2.11466217 33.33268602 -3.46129082 67.02366372 -21 96 C-21.99 96.495 -21.99 96.495 -23 97 C-21.44129857 90.82457336 -19.24026238 85.09993992 -16.625 79.3125 C-13.18698647 71.69597771 -10.48702214 63.97680834 -8 56 C-7.34 56 -6.68 56 -6 56 C-2.60623464 37.43410716 -0.56450641 18.86230053 0 0 Z " fill="#4681D7" transform="translate(714,632)"/>
<path d="M0 0 C0.33 0 0.66 0 1 0 C1 1.98 1 3.96 1 6 C1.99 6 2.98 6 4 6 C4.12375 7.299375 4.2475 8.59875 4.375 9.9375 C5.25064008 17.61434455 6.99920592 24.38398854 9.9921875 31.51171875 C10.96792332 33.92080294 11.78165656 36.33434951 12.5625 38.8125 C13.66416006 42.20680396 15.04960206 44.9931365 17 48 C19.44435451 52.25498749 20.35137202 55.08079167 20 60 C16.57355094 57.21004302 15.00847404 53.35237373 13.1875 49.4375 C12.83929199 48.69314697 12.49108398 47.94879395 12.13232422 47.18188477 C0.2435406 21.10335047 0.2435406 21.10335047 1 9 C0.34 8.67 -0.32 8.34 -1 8 C-0.67 5.36 -0.34 2.72 0 0 Z " fill="#5F41CC" transform="translate(268,394)"/>
<path d="M0 0 C1.3368669 4.0106007 0.15680736 6.94399298 -0.9375 10.875 C-2.72605566 17.33189365 -2.72605566 17.33189365 -3 24 C-2.67 24 -2.34 24 -2 24 C-2.01160156 24.88042969 -2.02320313 25.76085937 -2.03515625 26.66796875 C-2.04417969 27.82941406 -2.05320312 28.99085938 -2.0625 30.1875 C-2.07410156 31.33605469 -2.08570313 32.48460937 -2.09765625 33.66796875 C-2.0103579 36.64658851 -1.68935062 39.11526524 -1 42 C-0.71382813 43.23492188 -0.42765625 44.46984375 -0.1328125 45.7421875 C0.20178978 47.12011658 0.53775815 48.49771456 0.875 49.875 C1.03613281 50.55691406 1.19726562 51.23882813 1.36328125 51.94140625 C2.21727044 55.41694365 3.19702353 58.53126419 4.7578125 61.7578125 C6 65 6 65 5.1875 67.4375 C4.795625 67.953125 4.40375 68.46875 4 69 C-3 53.98473282 -3 53.98473282 -3 48 C-3.99 47.67 -4.98 47.34 -6 47 C-5.34 47 -4.68 47 -4 47 C-4.23396484 45.51113281 -4.23396484 45.51113281 -4.47265625 43.9921875 C-6.62397651 29.41202119 -6.77733111 13.55466222 0 0 Z " fill="#A44EC1" transform="translate(337,714)"/>
<path d="M0 0 C1.98 0.495 1.98 0.495 4 1 C4 1.66 4 2.32 4 3 C5.134375 3.268125 6.26875 3.53625 7.4375 3.8125 C12.04705135 4.96078681 16.51226481 6.45097898 21 8 C21.99 8.33 22.98 8.66 24 9 C24.47276367 9.47695313 24.94552734 9.95390625 25.43261719 10.4453125 C27.22478675 12.22296605 28.74612785 12.9283788 31.078125 13.875 C31.89821045 14.21490967 32.7182959 14.55481934 33.56323242 14.9050293 C34.44986572 15.26636963 35.33649902 15.62770996 36.25 16 C44.32197199 19.37668196 52.2885682 22.92314509 60.1875 26.6875 C61.11788086 27.12642578 62.04826172 27.56535156 63.00683594 28.01757812 C69.2300244 31.00310203 75.14206601 34.35135302 81 38 C78 39 78 39 75.08203125 37.78515625 C74.00308594 37.21667969 72.92414063 36.64820313 71.8125 36.0625 C70.72582031 35.49660156 69.63914062 34.93070313 68.51953125 34.34765625 C67.68808594 33.90292969 66.85664063 33.45820312 66 33 C66 32.34 66 31.68 66 31 C62.68885166 29.87119943 59.41021743 28.78697325 56 28 C56 27.34 56 26.68 56 26 C55.360625 25.896875 54.72125 25.79375 54.0625 25.6875 C49.93522674 24.76096927 45.99357051 23.38339371 42 22 C42 21.34 42 20.68 42 20 C36.69905784 18.19695845 31.39691512 16.49276376 26 15 C26 14.34 26 13.68 26 13 C24.1746875 12.4121875 24.1746875 12.4121875 22.3125 11.8125 C5.66464645 6.24562662 5.66464645 6.24562662 -1 2 C-0.67 1.34 -0.34 0.68 0 0 Z " fill="#5131B6" transform="translate(438,533)"/>
<path d="M0 0 C-0.33 0.66 -0.66 1.32 -1 2 C-3.27572454 2.44525045 -5.57310488 2.78241256 -7.875 3.0625 C-13.01536931 3.68644884 -13.01536931 3.68644884 -18 5 C-20.29106648 5.58568617 -22.58283706 6.16861979 -24.875 6.75 C-33.15425447 8.90778323 -41.83425423 11.22283615 -49 16 C-49.99 15.67 -50.98 15.34 -52 15 C-49.33182579 11.71382956 -45.82031338 10.4679739 -42 8.9375 C-38.46843682 7.50099326 -35.19254059 6.1283604 -32 4 C-28.07610657 2.8096976 -23.97821544 2.25666592 -19.9453125 1.546875 C-17.1938787 1.0359987 -14.47896768 0.43006455 -11.75 -0.1875 C-7.49012046 -1.0653346 -4.23663073 -0.92100668 0 0 Z " fill="#8D8AF0" transform="translate(505,165)"/>
<path d="M0 0 C0.556875 0.19335938 1.11375 0.38671875 1.6875 0.5859375 C2.450625 0.84632813 3.21375 1.10671875 4 1.375 C5.11375 1.75785156 5.11375 1.75785156 6.25 2.1484375 C9.15612397 3.09027175 9.15612397 3.09027175 12.83203125 3.84375 C17.93294865 5.09234349 22.1203846 7.62470404 26.61914062 10.25390625 C30.23398106 12.29075132 32.81883051 13.49566445 37 13 C37 13.99 37 14.98 37 16 C39.91597658 18.16098729 42.98355358 19.9792262 46.08203125 21.8671875 C49.04385384 24.03205381 50.38563546 25.74861318 52 29 C49.17861734 27.63051988 46.4834041 26.14363329 43.8125 24.5 C43.11769531 24.0771875 42.42289063 23.654375 41.70703125 23.21875 C40 22 40 22 39 20 C37.34235055 19.31121808 35.673985 18.64807133 34 18 C32.39969443 17.048825 30.81647217 16.06842085 29.25 15.0625 C24.66592457 12.24735458 20.17347557 10.42458023 15 9 C15 8.34 15 7.68 15 7 C14.44699219 6.87496094 13.89398437 6.74992187 13.32421875 6.62109375 C10.73845521 5.9301082 8.3047161 5.03803511 5.8125 4.0625 C4.93207031 3.72347656 4.05164063 3.38445312 3.14453125 3.03515625 C1 2 1 2 0 0 Z " fill="#589BF1" transform="translate(593,475)"/>
<path d="M0 0 C7.22459464 1.82351547 13.88032668 4.58367295 20.640625 7.66235352 C24.17699785 9.39489397 24.17699785 9.39489397 28 10 C28 10.66 28 11.32 28 12 C28.83144531 12.25394531 29.66289062 12.50789062 30.51953125 12.76953125 C34.41004786 14.14496641 38.00752613 15.83333888 41.6875 17.6875 C42.73599121 18.2127124 42.73599121 18.2127124 43.80566406 18.74853516 C48.99457548 21.3906174 53.92022994 24.31940819 58.765625 27.5546875 C60.7942534 28.86691216 62.81781914 29.9689696 65 31 C65 31.66 65 32.32 65 33 C65.61875 33.28875 66.2375 33.5775 66.875 33.875 C69 35 69 35 71 37 C67.00161005 37 65.15394413 35.02787024 62.125 32.6875 C46.0041769 20.7838757 27.12351242 13.16564926 8.82641602 5.26757812 C5.83899179 3.92779177 2.9185424 2.48315386 0 1 C0 0.67 0 0.34 0 0 Z " fill="#4F82F8" transform="translate(462,543)"/>
<path d="M0 0 C21.44836431 7.46199924 37.20503235 30.25589812 48 49 C47.34 49.99 46.68 50.98 46 52 C45.31164062 50.55367187 45.31164062 50.55367187 44.609375 49.078125 C43.99001725 47.80187267 43.37020128 46.52584263 42.75 45.25 C42.44964844 44.61578125 42.14929688 43.9815625 41.83984375 43.328125 C39.98909946 39.54788135 38.03551492 36.87984748 35 34 C34.67 33.01 34.34 32.02 34 31 C32.69205669 29.64175118 31.35099103 28.31543863 30 27 C28.84756279 25.67237043 27.70231808 24.33847919 26.5625 23 C23.91016223 19.94784062 21.24407718 17.43305788 18 15 C16.23886776 13.4664971 14.4892269 11.9211122 12.74609375 10.3671875 C10.91897053 8.93655411 9.07641219 8.02125579 7 7 C5.6256709 5.70896357 4.29103643 4.3743291 3 3 C2.4225 2.4225 1.845 1.845 1.25 1.25 C0.8375 0.8375 0.425 0.425 0 0 Z " fill="#4D1B9D" transform="translate(518,572)"/>
<path d="M0 0 C10.68919225 5.88097136 18.55135083 16.6601167 25.72949219 26.30273438 C26.62248131 27.49567449 27.53667067 28.67289421 28.46582031 29.83789062 C29.8828125 31.671875 29.8828125 31.671875 32 35 C31.63232422 37.20800781 31.63232422 37.20800781 31 39 C27.2250726 34.61292221 23.85649379 30.56948137 22 25 C21.175 24.690625 20.35 24.38125 19.5 24.0625 C18.2625 23.5365625 18.2625 23.5365625 17 23 C16.375 21.0625 16.375 21.0625 16 19 C15.02246356 17.97803008 14.0194119 16.98020375 13 16 C12.608125 15.278125 12.21625 14.55625 11.8125 13.8125 C8.93438159 9.34645419 4.81794114 4.40897057 0 2 C0 1.34 0 0.68 0 0 Z " fill="#5095E8" transform="translate(655,511)"/>
<path d="M0 0 C3.53179405 0.61634969 6.67032473 1.54916463 9.9921875 2.890625 C10.93827881 3.26840088 11.88437012 3.64617676 12.85913086 4.03540039 C13.85436768 4.43621826 14.84960449 4.83703613 15.875 5.25 C24.83231933 8.8126748 33.80357716 12.10886549 43 15 C37.4875618 16.8374794 33.18834384 16.36598677 27.9765625 13.8671875 C24.12795847 12.17866952 20.03708516 11.14532999 16 10 C16 9.34 16 8.68 16 8 C14.35 8 12.7 8 11 8 C11 7.34 11 6.68 11 6 C9.35 5.67 7.7 5.34 6 5 C6 4.34 6 3.68 6 3 C4.02 2.34 2.04 1.68 0 1 C0 0.67 0 0.34 0 0 Z " fill="#4E6EDD" transform="translate(519,448)"/>
<path d="M0 0 C5.75 0.875 5.75 0.875 8 2 C8.33 1.34 8.66 0.68 9 0 C12.875 1.75 12.875 1.75 14 4 C15.93317905 4.97874565 15.93317905 4.97874565 18.3125 5.84765625 C19.66686157 6.37818604 19.66686157 6.37818604 21.04858398 6.91943359 C22.02255127 7.29664551 22.99651855 7.67385742 24 8.0625 C33.44531492 11.80865224 42.31248317 16.13766641 51.18676758 21.06225586 C53.06090026 22.03149561 54.95778414 22.83257226 56.9140625 23.62109375 C60 25 60 25 60.9375 27.1875 C60.958125 27.785625 60.97875 28.38375 61 29 C57.81928256 27.4780871 54.77922832 25.740251 51.72509766 23.98071289 C35.16696176 14.487461 17.83565959 7.69774514 0 1 C0 0.67 0 0.34 0 0 Z " fill="#412F97" transform="translate(448,562)"/>
<path d="M0 0 C0.66 0.99 1.32 1.98 2 3 C-0.8895177 6.97308684 -4.18733868 9.99285346 -7.90234375 13.15234375 C-10.60542592 15.53327088 -13.08172834 18.09810789 -15.5546875 20.71484375 C-17 22 -17 22 -19 22 C-19 22.66 -19 23.32 -19 24 C-21.01171875 25.3671875 -21.01171875 25.3671875 -23.6875 26.875 C-26.5941252 28.5534737 -29.18567924 30.1485434 -31.8125 32.25 C-34.15616874 34.124935 -36.12042002 35.16643737 -39 36 C-39.99 35.67 -40.98 35.34 -42 35 C-41.03320312 34.443125 -40.06640625 33.88625 -39.0703125 33.3125 C-31.21223519 28.73106783 -23.86599913 24.01045665 -17 18 C-16.50338867 17.56896973 -16.00677734 17.13793945 -15.49511719 16.69384766 C-9.65003221 11.59414507 -4.13374909 6.64352532 0 0 Z " fill="#4D69F0" transform="translate(538,781)"/>
<path d="M0 0 C0.99 0.33 1.98 0.66 3 1 C-6.02875047 13.43520211 -16.14547157 23.97543135 -28.9375 32.5625 C-29.57623047 32.99224121 -30.21496094 33.42198242 -30.87304688 33.86474609 C-33.89249315 35.83475068 -36.48052232 37.25646186 -40 38 C-36.39398808 33.92869622 -32.73572348 31.57593892 -27.890625 29.11328125 C-25.84239628 28.13796954 -25.84239628 28.13796954 -25 26 C-24.01 25.67 -23.02 25.34 -22 25 C-21.67 24.34 -21.34 23.68 -21 23 C-20.34 23 -19.68 23 -19 23 C-18.67 22.01 -18.34 21.02 -18 20 C-17.4225 19.731875 -16.845 19.46375 -16.25 19.1875 C-13.90325051 17.94893777 -12.99635748 16.92328297 -11.375 14.875 C-10.59125 13.92625 -9.8075 12.9775 -9 12 C-8.34 12 -7.68 12 -7 12 C-6.731875 11.443125 -6.46375 10.88625 -6.1875 10.3125 C-4.42337578 6.87710021 -2.74206894 3.74206894 0 1 C0 0.67 0 0.34 0 0 Z " fill="#C74BD4" transform="translate(539,776)"/>
<path d="M0 0 C-7.36916758 4.32938595 -14.78980234 8.49225518 -22.4375 12.3125 C-23.08654297 12.63734375 -23.73558594 12.9621875 -24.40429688 13.296875 C-26.26181658 14.21515654 -28.12770074 15.11228475 -30 16 C-30.63437988 16.30728027 -31.26875977 16.61456055 -31.92236328 16.93115234 C-36.64784577 19.11738474 -36.64784577 19.11738474 -40 18 C-38.21046815 17.16209211 -36.41830305 16.32980604 -34.625 15.5 C-33.62726562 15.0359375 -32.62953125 14.571875 -31.6015625 14.09375 C-29 13 -29 13 -27 13 C-27 12.34 -27 11.68 -27 11 C-25.71086513 10.32845067 -24.41859796 9.66291141 -23.125 9 C-22.40570312 8.62875 -21.68640625 8.2575 -20.9453125 7.875 C-19 7 -19 7 -17 7 C-17 6.34 -17 5.68 -17 5 C-15.25197854 4.18325204 -13.50149811 3.37176549 -11.75 2.5625 C-10.77546875 2.11003906 -9.8009375 1.65757812 -8.796875 1.19140625 C-2.760181 -1.3800905 -2.760181 -1.3800905 0 0 Z " fill="#4459C5" transform="translate(607,812)"/>
<path d="M0 0 C0.87140625 0.45890625 1.7428125 0.9178125 2.640625 1.390625 C11.75676983 6.11541691 20.82844111 10.1238716 31 12 C31 12.66 31 13.32 31 14 C31.9590625 13.7215625 31.9590625 13.7215625 32.9375 13.4375 C33.618125 13.293125 34.29875 13.14875 35 13 C35.495 13.495 35.495 13.495 36 14 C38.3452769 14.55950364 40.70155796 15.07329579 43.0625 15.5625 C44.35285156 15.83191406 45.64320313 16.10132813 46.97265625 16.37890625 C47.97167969 16.58386719 48.97070312 16.78882813 50 17 C50 17.33 50 17.66 50 18 C44.22566018 18.25543326 39.21159105 17.36212962 33.625 15.9375 C32.75665527 15.71852051 31.88831055 15.49954102 30.99365234 15.27392578 C20.15273124 12.41315458 9.9750332 8.0956052 0 3 C0 2.01 0 1.02 0 0 Z " fill="#9452E9" transform="translate(392,830)"/>
<path d="M0 0 C0.66 0.33 1.32 0.66 2 1 C-9.29489848 7.97626083 -22.11304084 12.33731176 -34.98046875 15.484375 C-37.25062341 16.06398896 -39.45745552 16.78178922 -41.6875 17.5 C-46.47807661 18.95923953 -51.01461543 19.59795286 -56 20 C-56 19.34 -56 18.68 -56 18 C-55.00540771 17.77449463 -55.00540771 17.77449463 -53.99072266 17.54443359 C-36.1677007 13.47121576 -18.8010471 9.26340631 -2.40625 1.00390625 C-1.6121875 0.67261719 -0.818125 0.34132813 0 0 Z " fill="#B150D4" transform="translate(503,645)"/>
<path d="M0 0 C5.46632245 9.24231078 3.04228287 26.81788975 0.81787109 36.98730469 C-0.99659892 43.98923052 -3.68228289 50.58212099 -7 57 C-7.33 57 -7.66 57 -8 57 C-8 54.69 -8 52.38 -8 50 C-7.01 50 -6.02 50 -5 50 C-4.87625 48.989375 -4.7525 47.97875 -4.625 46.9375 C-4.02351916 43.14817073 -3.06115918 39.68284655 -2 36 C0.05243627 28.09172691 0.24295498 20.51389391 0.125 12.375 C0.11597656 11.18003906 0.10695313 9.98507812 0.09765625 8.75390625 C0.07431077 5.83572166 0.04156656 2.91797224 0 0 Z " fill="#A68FFD" transform="translate(648,270)"/>
<path d="M0 0 C0.99 0.66 1.98 1.32 3 2 C2.59007812 2.59167969 2.18015625 3.18335938 1.7578125 3.79296875 C1.21898437 4.58316406 0.68015625 5.37335937 0.125 6.1875 C-0.40867187 6.96480469 -0.94234375 7.74210938 -1.4921875 8.54296875 C-2.98653722 10.97806195 -3.94771633 13.35086561 -5 16 C-10.00127195 24.70933901 -15.79323776 32.98164984 -23 40 C-22.40333755 37.0461376 -21.53787826 35.03890214 -19.77734375 32.6015625 C-19.32488281 31.96395996 -18.87242187 31.32635742 -18.40625 30.66943359 C-17.9215625 29.99477051 -17.436875 29.32010742 -16.9375 28.625 C-10.50247295 19.47860875 -4.94551101 10.0417998 0 0 Z " fill="#4879F5" transform="translate(562,743)"/>
<path d="M0 0 C1.93816735 0.1141866 3.87555099 0.24173423 5.8125 0.375 C6.89144531 0.44460938 7.97039063 0.51421875 9.08203125 0.5859375 C12 1 12 1 15 3 C18.1628485 2.19595537 18.1628485 2.19595537 21 1 C14.96972385 7.62220509 5.92540457 7.40734227 -2.41064453 7.79736328 C-4.27343287 7.87347185 -6.13669002 7.93796098 -8 8 C-8 7.67 -8 7.34 -8 7 C-7.21753906 6.87882812 -6.43507813 6.75765625 -5.62890625 6.6328125 C-4.11103516 6.38144531 -4.11103516 6.38144531 -2.5625 6.125 C-1.55316406 5.96257812 -0.54382813 5.80015625 0.49609375 5.6328125 C1.32238281 5.42398437 2.14867187 5.21515625 3 5 C3.33 4.34 3.66 3.68 4 3 C2.68 2.34 1.36 1.68 0 1 C0 0.67 0 0.34 0 0 Z " fill="#594ECB" transform="translate(596,352)"/>
<path d="M0 0 C1 3 1 3 -0.37109375 6.15234375 C-1.04746418 7.42077016 -1.73716338 8.68214701 -2.4375 9.9375 C-2.80077393 10.60120605 -3.16404785 11.26491211 -3.53833008 11.94873047 C-8.19014215 20.31858574 -13.03747931 28.33810629 -20 35 C-18.69289187 31.42597488 -17.11587706 28.49002567 -14.9375 25.375 C-13.16012171 22.82843844 -11.98934061 20.96802184 -11 18 C-9 16 -9 16 -7 15 C-6.731875 14.175 -6.46375 13.35 -6.1875 12.5 C-4.66071312 7.99999658 -2.38405204 4.09474586 0 0 Z " fill="#AB33BC" transform="translate(561,742)"/>
<path d="M0 0 C5.31791824 5.2532627 9.90983009 10.2516262 13.0234375 17.1015625 C14.58513793 20.13750814 16.72315095 22.47016773 19 25 C18.67 25.66 18.34 26.32 18 27 C13.30415171 22.13311088 9.38592045 16.85072208 5.625 11.25 C5.18430176 10.60023193 4.74360352 9.95046387 4.28955078 9.28100586 C2.25854021 6.21069838 0.74994874 3.5993608 0 0 Z " fill="#5336B7" transform="translate(288,454)"/>
<path d="M0 0 C0.99 0.33 1.98 0.66 3 1 C0.66443703 11.57872639 -2.39504517 21.17609636 -7 31 C-7.66 30.67 -8.32 30.34 -9 30 C-5.4028777 18.99280576 -5.4028777 18.99280576 -4 16 C-3.34 15.67 -2.68 15.34 -2 15 C-1.52425562 12.45975996 -1.15992453 9.99948536 -0.875 7.4375 C-0.78863281 6.72658203 -0.70226562 6.01566406 -0.61328125 5.28320312 C-0.40065217 3.52310688 -0.19927303 1.76165836 0 0 Z " fill="#9532BA" transform="translate(570,712)"/>
<path d="M0 0 C3.61423547 2.95710175 4.65655384 6.41646473 5.26171875 10.96875 C5.60680281 17.53724667 4.06204708 24.17833025 1 30 C-1.140625 30.84375 -1.140625 30.84375 -3 31 C-2.6390625 30.35675781 -2.278125 29.71351563 -1.90625 29.05078125 C2.51583704 20.4399951 3.60888755 12.11377254 1 2.6875 C0.67 1.800625 0.34 0.91375 0 0 Z " fill="#532C95" transform="translate(520,603)"/>
<path d="M0 0 C1.98 0.495 1.98 0.495 4 1 C4 1.66 4 2.32 4 3 C5.134375 3.268125 6.26875 3.53625 7.4375 3.8125 C12.04705135 4.96078681 16.51226481 6.45097898 21 8 C21.99 8.33 22.98 8.66 24 9 C24 9.66 24 10.32 24 11 C19.46970477 11.24686439 16.51472715 10.65361665 12.4375 8.6875 C11.52871094 8.25824219 10.61992187 7.82898438 9.68359375 7.38671875 C7.87196009 6.45057617 6.09217104 5.45048939 4.34765625 4.39453125 C1.97861515 2.87475091 1.97861515 2.87475091 -1 2 C-0.67 1.34 -0.34 0.68 0 0 Z " fill="#5452DD" transform="translate(438,533)"/>
<path d="M0 0 C0.99 0 1.98 0 3 0 C4.26750669 6.79663036 4.11139726 13.54298684 4.0625 20.4375 C4.05798828 21.64599609 4.05347656 22.85449219 4.04882812 24.09960938 C4.03710145 27.06645789 4.02068896 30.0332027 4 33 C3.67 33 3.34 33 3 33 C2.93941406 31.94941406 2.87882813 30.89882813 2.81640625 29.81640625 C2.38514967 22.51982323 1.93353367 15.25283848 1 8 C0.90589844 7.23558594 0.81179688 6.47117187 0.71484375 5.68359375 C0.48084443 3.78852886 0.24107714 1.89417751 0 0 Z " fill="#6B24A9" transform="translate(573,653)"/>
<path d="M0 0 C0.33 0.99 0.66 1.98 1 3 C-0.3125 4.5 -0.3125 4.5 -2 6 C-2.99 6 -3.98 6 -5 6 C-5.2475 6.61875 -5.495 7.2375 -5.75 7.875 C-8.16712475 11.98411208 -12.67994495 12.55998165 -17 14 C-17.721875 14.391875 -18.44375 14.78375 -19.1875 15.1875 C-21 16 -21 16 -24 15 C-22.28103516 14.12988281 -22.28103516 14.12988281 -20.52734375 13.2421875 C-18.99714204 12.45361729 -17.46720833 11.66452688 -15.9375 10.875 C-15.18533203 10.49601563 -14.43316406 10.11703125 -13.65820312 9.7265625 C-8.46139572 7.02692229 -4.31961354 3.95821161 0 0 Z " fill="#7334A9" transform="translate(516,634)"/>
<path d="M0 0 C3.36179774 1.44077046 5.59156268 3.24750021 8 6 C8 6.66 8 7.32 8 8 C8.66 8 9.32 8 10 8 C11.43581474 9.61457079 12.80144783 11.29219075 14.125 13 C14.84945312 13.928125 15.57390625 14.85625 16.3203125 15.8125 C16.87460937 16.534375 17.42890625 17.25625 18 18 C17.67 18.66 17.34 19.32 17 20 C13.41348144 17.31011108 10.75779302 14.5185635 8 11 C7.34 10.67 6.68 10.34 6 10 C4.98234073 8.00892752 3.98422146 6.00781177 3 4 C2.03465478 2.64136599 1.04722851 1.29656863 0 0 Z " fill="#998EEF" transform="translate(611,202)"/>
<path d="M0 0 C0.46148437 0.35191406 0.92296875 0.70382812 1.3984375 1.06640625 C9.62474564 7.29303869 17.84618058 13.20198354 27 18 C26.01 18.66 25.02 19.32 24 20 C23.60554687 19.56558594 23.21109375 19.13117188 22.8046875 18.68359375 C20.72887306 16.74706556 18.58699983 15.47309869 16.125 14.0625 C13.25498952 12.3855462 10.7224958 10.7767901 8.125 8.6875 C6.15607967 6.84637966 6.15607967 6.84637966 3.8125 6.625 C3.214375 6.41875 2.61625 6.2125 2 6 C0.75 2.9375 0.75 2.9375 0 0 Z " fill="#4A58CA" transform="translate(492,429)"/>
<path d="M0 0 C5.59554553 -0.29105568 9.77000574 0.62367726 14.9375 2.5 C15.62134766 2.73847656 16.30519531 2.97695313 17.00976562 3.22265625 C18.67658097 3.80545882 20.33880316 4.40137051 22 5 C15.58011611 7.1399613 10.95447132 5.86696767 5 3 C3.3357865 2.32723284 1.67013418 1.65793165 0 1 C0 0.67 0 0.34 0 0 Z " fill="#507AE2" transform="translate(540,458)"/>
<path d="M0 0 C6.11893423 0.56656798 11.32363807 3.10651129 16.875 5.5625 C17.84953125 5.98724609 18.8240625 6.41199219 19.828125 6.84960938 C22.22144765 7.89375504 24.61188014 8.94402214 27 10 C26.01 10.66 25.02 11.32 24 12 C23.01 11.67 22.02 11.34 21 11 C21 10.34 21 9.68 21 9 C15.69905784 7.19695845 10.39691512 5.49276376 5 4 C5 3.34 5 2.68 5 2 C3.35 1.67 1.7 1.34 0 1 C0 0.67 0 0.34 0 0 Z " fill="#5340C9" transform="translate(459,544)"/>
<path d="M0 0 C0.99 0.33 1.98 0.66 3 1 C-2.29478921 8.29245693 -7.64884385 15.65370462 -15 21 C-13.69386058 17.08158173 -12.16870152 14.67359191 -9 12 C-8.34 12 -7.68 12 -7 12 C-6.731875 11.443125 -6.46375 10.88625 -6.1875 10.3125 C-4.42337578 6.87710021 -2.74206894 3.74206894 0 1 C0 0.67 0 0.34 0 0 Z " fill="#B746CF" transform="translate(539,776)"/>
<path d="M0 0 C-2.2863012 1.36402043 -4.57821749 2.71634274 -6.875 4.0625 C-7.85146484 4.64741211 -7.85146484 4.64741211 -8.84765625 5.24414062 C-10.53065725 6.22444533 -12.26296199 7.11898432 -14 8 C-16 7 -16 7 -17 5 C-15.25197854 4.18325204 -13.50149811 3.37176549 -11.75 2.5625 C-10.77546875 2.11003906 -9.8009375 1.65757812 -8.796875 1.19140625 C-2.760181 -1.3800905 -2.760181 -1.3800905 0 0 Z " fill="#4863D1" transform="translate(607,812)"/>
<path d="M0 0 C1.98 0.99 1.98 0.99 4 2 C4 2.66 4 3.32 4 4 C4.598125 4.226875 5.19625 4.45375 5.8125 4.6875 C8.56351888 6.33811133 9.52484637 8.1972081 11 11 C7.49053006 10.69918829 6.02211769 10.0180963 3.25 7.75 C0.9819037 4.97788231 0.30081171 3.50946994 0 0 Z " fill="#9C49CA" transform="translate(359,805)"/>
<path d="M0 0 C1.65 0 3.3 0 5 0 C2.05740921 3.14480675 -1.00060534 5.49230126 -4.625 7.8125 C-5.58664062 8.43769531 -6.54828125 9.06289063 -7.5390625 9.70703125 C-8.35117187 10.13371094 -9.16328125 10.56039062 -10 11 C-10.66 10.67 -11.32 10.34 -12 10 C-6.85714286 4.42857143 -6.85714286 4.42857143 -3 4 C-3 3.34 -3 2.68 -3 2 C-2.01 2 -1.02 2 0 2 C0 1.34 0 0.68 0 0 Z " fill="#4667D2" transform="translate(619,800)"/>
<path d="M0 0 C3.02881176 2.85064637 5.77504073 5.81255092 8.375 9.0625 C9.16003906 10.03896484 9.16003906 10.03896484 9.9609375 11.03515625 C11 13 11 13 10.6640625 15.24609375 C10.44492187 15.82488281 10.22578125 16.40367187 10 17 C5.37042307 11.61968086 2.08300084 6.88992586 0 0 Z " fill="#5BA6F1" transform="translate(676,533)"/>
<path d="M0 0 C1 3 1 3 0.19555664 5.0847168 C-0.22862549 5.86500244 -0.65280762 6.64528809 -1.08984375 7.44921875 C-1.54423828 8.29677734 -1.99863281 9.14433594 -2.46679688 10.01757812 C-2.95212891 10.89865234 -3.43746094 11.77972656 -3.9375 12.6875 C-4.65969727 14.02651367 -4.65969727 14.02651367 -5.39648438 15.39257812 C-6.58876897 17.60007534 -7.79017894 19.80207933 -9 22 C-10 20 -10 20 -8.890625 16.62890625 C-8.35192922 15.27016615 -7.80465999 13.91480177 -7.25 12.5625 C-6.98445312 11.88123047 -6.71890625 11.19996094 -6.4453125 10.49804688 C-5.06135842 7.06839368 -3.83905418 4.40666949 -1 2 C-0.67 1.34 -0.34 0.68 0 0 Z " fill="#4278D3" transform="translate(701,707)"/>
<path d="M0 0 C0.33 0.66 0.66 1.32 1 2 C-5.06979017 3.13650717 -10.79061145 2.92803609 -16.9375 2.5625 C-17.90751953 2.51029297 -18.87753906 2.45808594 -19.87695312 2.40429688 C-22.25170788 2.27561558 -24.62593229 2.14070204 -27 2 C-27 1.67 -27 1.34 -27 1 C-23.81265063 0.83036895 -20.62510059 0.66483749 -17.4375 0.5 C-16.54224609 0.45230469 -15.64699219 0.40460937 -14.72460938 0.35546875 C-9.80829229 0.10334993 -4.9226912 -0.0540213 0 0 Z " fill="#6454E5" transform="translate(463,827)"/>
<path d="M0 0 C1.45778935 2.9155787 0.46714093 4.64412246 -0.375 7.75 C-1.85620312 13.25952187 -2.87922664 18.71359214 -3.5625 24.375 C-3.706875 25.57125 -3.85125 26.7675 -4 28 C-4.33 28 -4.66 28 -5 28 C-5.72337137 18.51579753 -3.72900059 10.00898989 -1 1 C-0.67 0.67 -0.34 0.34 0 0 Z " fill="#D560EB" transform="translate(338,716)"/>
<path d="M0 0 C0.33 0 0.66 0 1 0 C1.76787057 3.22505639 2.25776692 5.32121379 1.0625 8.46875 C-0.47143721 13.56683544 -0.46841907 18.57734535 -0.625 23.875 C-0.66367187 24.94492187 -0.70234375 26.01484375 -0.7421875 27.1171875 C-0.83602452 29.74462408 -0.92171557 32.37206171 -1 35 C-1.33 35 -1.66 35 -2 35 C-2.05899621 31.22923455 -2.09392568 27.45859074 -2.125 23.6875 C-2.14175781 22.63498047 -2.15851563 21.58246094 -2.17578125 20.49804688 C-2.21920196 13.44218197 -1.5223667 6.89012527 0 0 Z " fill="#865DFE" transform="translate(270,355)"/>
<path d="M0 0 C0 0.66 0 1.32 0 2 C-0.99 2 -1.98 2 -3 2 C-3 2.66 -3 3.32 -3 4 C-4.59766103 4.86627399 -6.20339944 5.71766465 -7.8125 6.5625 C-8.70582031 7.03816406 -9.59914063 7.51382813 -10.51953125 8.00390625 C-13 9 -13 9 -16 8 C-13.52093943 5.13437405 -10.87838941 3.8382206 -7.4375 2.3125 C-5.98150391 1.65701172 -5.98150391 1.65701172 -4.49609375 0.98828125 C-2 0 -2 0 0 0 Z " fill="#8582ED" transform="translate(469,172)"/>
<path d="M0 0 C0.99 0.66 1.98 1.32 3 2 C1.56967163 3.17544805 0.13046758 4.34010262 -1.3125 5.5 C-2.11300781 6.1496875 -2.91351563 6.799375 -3.73828125 7.46875 C-6 9 -6 9 -9 9 C-7.27592413 4.61144323 -4.17026127 2.08513063 0 0 Z " fill="#564ED1" transform="translate(501,381)"/>
<path d="M0 0 C0.66 0.33 1.32 0.66 2 1 C-3.445 7.435 -3.445 7.435 -9 14 C-9.66 13.67 -10.32 13.34 -11 13 C-10.34 12.34 -9.68 11.68 -9 11 C-8.773125 10.2575 -8.54625 9.515 -8.3125 8.75 C-6.43411088 4.81432757 -3.39575 2.64214773 0 0 Z " fill="#817AF2" transform="translate(414,209)"/>
<path d="M0 0 C0.66 1.32 1.32 2.64 2 4 C2.66 4 3.32 4 4 4 C5.79275866 7.11910856 6.34290718 9.67682428 6.625 13.25 C6.69976563 14.14203125 6.77453125 15.0340625 6.8515625 15.953125 C6.90054688 16.62859375 6.94953125 17.3040625 7 18 C6.34 17.67 5.68 17.34 5 17 C4.3671875 14.71484375 4.3671875 14.71484375 3.875 11.9375 C3.70742188 11.01839844 3.53984375 10.09929688 3.3671875 9.15234375 C3.24601563 8.44207031 3.12484375 7.73179687 3 7 C2.34 7 1.68 7 1 7 C0.67 4.69 0.34 2.38 0 0 Z " fill="#5CA8F3" transform="translate(696,567)"/>
<path d="M0 0 C3.70571963 3.19458589 5.50337057 6.34381955 7 11 C6.0703125 13.21875 6.0703125 13.21875 5 15 C4.15733289 13.25447527 3.32619962 11.5033792 2.5 9.75 C2.0359375 8.77546875 1.571875 7.8009375 1.09375 6.796875 C0 4 0 4 0 0 Z " fill="#9946BB" transform="translate(336,768)"/>
<path d="M0 0 C0.66 0.99 1.32 1.98 2 3 C0.54699102 5.14961616 -0.9120426 7.29467129 -2.375 9.4375 C-2.7875 10.04916016 -3.2 10.66082031 -3.625 11.29101562 C-6.7734375 15.88671875 -6.7734375 15.88671875 -9 17 C-7.69289187 13.42597488 -6.11587706 10.49002567 -3.9375 7.375 C-2.16012171 4.82843844 -0.98934061 2.96802184 0 0 Z " fill="#AF3BC4" transform="translate(550,760)"/>
<path d="M0 0 C4.78373993 1.6401394 8.70723897 3.78383824 11.3125 8.25 C11.539375 8.8275 11.76625 9.405 12 10 C9.24491926 8.78776447 6.79078563 7.25548525 4.3125 5.5625 C3.71050781 5.15128906 3.10851562 4.74007813 2.48828125 4.31640625 C1 3 1 3 0 0 Z " fill="#589DED" transform="translate(633,494)"/>
<path d="M0 0 C1.44037669 0.93307421 2.87718985 1.87165077 4.3125 2.8125 C5.11300781 3.33457031 5.91351563 3.85664063 6.73828125 4.39453125 C10.65065789 7.17171053 10.65065789 7.17171053 12 9 C11.6875 11.1875 11.6875 11.1875 11 13 C9.16052663 11.21427748 7.32842259 9.42197551 5.5 7.625 C4.71302734 6.86316406 4.71302734 6.86316406 3.91015625 6.0859375 C2.56846819 4.76167396 1.28004185 3.38394135 0 2 C0 1.34 0 0.68 0 0 Z " fill="#5738BB" transform="translate(308,482)"/>
<path d="M0 0 C0 2.72531783 -0.05650765 4.47750232 -1 7 C-2.84765625 8.703125 -2.84765625 8.703125 -5.0625 10.25 C-5.79597656 10.77078125 -6.52945312 11.2915625 -7.28515625 11.828125 C-7.85105469 12.21484375 -8.41695313 12.6015625 -9 13 C-7.50923566 9.7173068 -5.61379679 7.06922559 -3.375 4.25 C-2.74335938 3.45078125 -2.11171875 2.6515625 -1.4609375 1.828125 C-0.97882813 1.22484375 -0.49671875 0.6215625 0 0 Z " fill="#6D69E1" transform="translate(405,218)"/>
<path d="M0 0 C1.32 0.33 2.64 0.66 4 1 C1.14723863 3.93200474 -1.65079784 6.64315404 -5 9 C-5.66 8.67 -6.32 8.34 -7 8 C-4.69 5.36 -2.38 2.72 0 0 Z " fill="#857FF5" transform="translate(430,193)"/>
<path d="M0 0 C1.299375 0.680625 1.299375 0.680625 2.625 1.375 C5.71476907 2.86266659 8.72930848 3.9876431 12 5 C11.67 5.66 11.34 6.32 11 7 C8.15449988 6.33989524 5.47674001 5.48275034 2.75 4.4375 C2.04359375 4.16808594 1.3371875 3.89867187 0.609375 3.62109375 C0.07828125 3.41613281 -0.4528125 3.21117187 -1 3 C-0.67 2.01 -0.34 1.02 0 0 Z " fill="#5758E6" transform="translate(425,527)"/>
<path d="M0 0 C0.7734375 0.433125 0.7734375 0.433125 1.5625 0.875 C4.62356725 2.28780027 7.74944918 3.1248517 11 4 C11 4.99 11 5.98 11 7 C7.41584854 7 6.58796261 6.21108216 3.8125 4.0625 C3.09707031 3.51722656 2.38164062 2.97195313 1.64453125 2.41015625 C1.10183594 1.94480469 0.55914062 1.47945312 0 1 C0 0.67 0 0.34 0 0 Z " fill="#5637BA" transform="translate(339,511)"/>
<path d="M0 0 C2.75 0.0625 2.75 0.0625 6 1 C7.76511299 3.22511214 8.77297776 5.40437603 10 8 C6.05205855 6.32971708 3.18203882 3.8204435 0 1 C0 0.67 0 0.34 0 0 Z " fill="#5A39BF" transform="translate(329,503)"/>
<path d="M0 0 C-5.33996987 1.43034907 -10.47444002 2.62538576 -16 3 C-16.99 2.34 -17.98 1.68 -19 1 C-15.28491089 0.31564148 -11.56506137 -0.20194403 -7.8125 -0.625 C-6.97332031 -0.72039063 -6.13414062 -0.81578125 -5.26953125 -0.9140625 C-3 -1 -3 -1 0 0 Z " fill="#6560F3" transform="translate(512,846)"/>
<path d="M0 0 C2.97 0.99 5.94 1.98 9 3 C9.33 4.65 9.66 6.3 10 8 C6.05205855 6.32971708 3.18203882 3.8204435 0 1 C0 0.67 0 0.34 0 0 Z " fill="#813CB4" transform="translate(368,816)"/>
<path d="M0 0 C2.76248869 5.15664556 3.1129027 9.12905966 3 15 C1.14799552 12.22199328 0.5142048 10.66558555 -0.1875 7.5 C-0.36667969 6.7265625 -0.54585937 5.953125 -0.73046875 5.15625 C-1 3 -1 3 0 0 Z " fill="#611C9E" transform="translate(572,640)"/>
<path d="M0 0 C3.55780196 0.60990891 6.6828589 1.5783681 10 3 C10 3.66 10 4.32 10 5 C6.63295715 5.2295711 4.58629732 5.33943529 1.625 3.625 C1.08875 3.08875 0.5525 2.5525 0 2 C0 1.34 0 0.68 0 0 Z " fill="#515FE6" transform="translate(452,539)"/>
<path d="M0 0 C0.33 0 0.66 0 1 0 C0.50769231 6.4 0.50769231 6.4 -2.0625 9.4375 C-2.701875 9.953125 -3.34125 10.46875 -4 11 C-3.49172849 6.62886504 -2.54826592 3.61004338 0 0 Z " fill="#B755CB" transform="translate(342,705)"/>
<path d="M0 0 C4.3177458 0.50797009 8.03302114 1.19682779 12 3 C11.01 3.66 10.02 4.32 9 5 C6.73828125 4.3203125 6.73828125 4.3203125 4.3125 3.125 C3.50425781 2.73570312 2.69601562 2.34640625 1.86328125 1.9453125 C1.24839844 1.63335938 0.63351562 1.32140625 0 1 C0 0.67 0 0.34 0 0 Z " fill="#924DE1" transform="translate(406,838)"/>
<path d="M0 0 C2.4375 1.1875 2.4375 1.1875 5 3 C5.875 5.5625 5.875 5.5625 6 8 C5.67 8.66 5.34 9.32 5 10 C4.16121545 8.71186658 3.32913217 7.41936744 2.5 6.125 C2.0359375 5.40570312 1.571875 4.68640625 1.09375 3.9453125 C0 2 0 2 0 0 Z " fill="#9345B7" transform="translate(342,783)"/>
<path d="M0 0 C0.391875 0.4125 0.78375 0.825 1.1875 1.25 C3.07008574 3.12703675 3.07008574 3.12703675 5.625 5.0625 C8 7 8 7 9 9 C4.89041233 7.54955729 1.56741255 5.48889248 -2 3 C-1.34 2.67 -0.68 2.34 0 2 C0 1.34 0 0.68 0 0 Z " fill="#4F33AE" transform="translate(352,517)"/>
<path d="M0 0 C4.55384615 -0.36923077 4.55384615 -0.36923077 6.8125 1.5 C7.204375 1.995 7.59625 2.49 8 3 C3.59085217 4.10228696 -0.48382401 4.07654536 -5 4 C-5 3.67 -5 3.34 -5 3 C-3.35 3 -1.7 3 0 3 C0 2.01 0 1.02 0 0 Z " fill="#4C45B8" transform="translate(576,358)"/>
<path d="M0 0 C0.515625 0.2475 1.03125 0.495 1.5625 0.75 C-1.29056797 3.07472205 -3.97824837 4.5008258 -7.4375 5.75 C-8.0975 5.09 -8.7575 4.43 -9.4375 3.75 C-3.0375 -0.31153846 -3.0375 -0.31153846 0 0 Z " fill="#BE51D8" transform="translate(498.4375,813.25)"/>
<path d="M0 0 C-4.84060277 3.06242216 -8.29290936 4.53411505 -14 5 C-9.94779194 1.59614523 -5.27662976 -1.75887659 0 0 Z " fill="#8A7BFC" transform="translate(350,267)"/>
<path d="M0 0 C0.99 0 1.98 0 3 0 C3 0.66 3 1.32 3 2 C3.61875 2.28875 4.2375 2.5775 4.875 2.875 C7 4 7 4 9 6 C6.75 6.375 6.75 6.375 4 6 C1.6875 3 1.6875 3 0 0 Z " fill="#9949D3" transform="translate(376,821)"/>
<path d="M0 0 C1.33897583 0.95043374 2.67105427 1.91059147 4 2.875 C5.11375 3.67550781 5.11375 3.67550781 6.25 4.4921875 C6.8275 4.98976563 7.405 5.48734375 8 6 C8 6.66 8 7.32 8 8 C5.62051228 7.82374165 4.29774151 7.30280227 2.62109375 5.59765625 C1.37884514 4.09350908 0.18623944 2.54870149 -1 1 C-0.67 0.67 -0.34 0.34 0 0 Z " fill="#B858DE" transform="translate(380,800)"/>
<path d="M0 0 C0 3.99904969 -1.72586967 5.80200422 -4 9 C-4.8125 7.3125 -4.8125 7.3125 -5 5 C-2.5625 2.25 -2.5625 2.25 0 0 Z " fill="#477AD4" transform="translate(685,737)"/>
<path d="M0 0 C5.75 0.875 5.75 0.875 8 2 C8.33 1.34 8.66 0.68 9 0 C10.32 0.66 11.64 1.32 13 2 C12.67 2.66 12.34 3.32 12 4 C7.6822542 3.49202991 3.96697886 2.80317221 0 1 C0 0.67 0 0.34 0 0 Z " fill="#503CB4" transform="translate(448,562)"/>
<path d="M0 0 C0.66 0.66 1.32 1.32 2 2 C1.21625 2.7425 0.4325 3.485 -0.375 4.25 C-2.56504531 6.54433318 -3.82731386 8.12158858 -5 11 C-5.66 11 -6.32 11 -7 11 C-5.5140084 6.40693504 -3.14985318 3.56430755 0 0 Z " fill="#655AE6" transform="translate(491,389)"/>
<path d="M0 0 C0.33 0.66 0.66 1.32 1 2 C2.65 1.67 4.3 1.34 6 1 C3.73814546 3.26185454 2.03016439 4.03921617 -1 5 C-1.99 4.67 -2.98 4.34 -4 4 C-2.68 2.68 -1.36 1.36 0 0 Z " fill="#4351C0" transform="translate(561,830)"/>
<path d="M0 0 C1 3 1 3 0.375 5 C-1.36380086 7.52916489 -3.31063318 8.58454378 -6 10 C-5.34 8.35 -4.68 6.7 -4 5 C-3.34 5 -2.68 5 -2 5 C-1.855625 4.360625 -1.71125 3.72125 -1.5625 3.0625 C-1 1 -1 1 0 0 Z " fill="#5997F5" transform="translate(675,748)"/>
<path d="M0 0 C2.96404505 2.80804268 5.44499019 5.18315774 7 9 C3.46352496 7.32482761 2.2088437 6.50719183 0.6875 2.8125 C0.460625 1.884375 0.23375 0.95625 0 0 Z " fill="#5095E6" transform="translate(676,533)"/>
<path d="M0 0 C1.32 0.33 2.64 0.66 4 1 C1.36 2.98 -1.28 4.96 -4 7 C-4 4 -4 4 -2.25 1.75 C-1.5075 1.1725 -0.765 0.595 0 0 Z " fill="#8B86F6" transform="translate(443,184)"/>
<path d="M0 0 C0.66 0.33 1.32 0.66 2 1 C0.35 2.98 -1.3 4.96 -3 7 C-3.33 5.68 -3.66 4.36 -4 3 C-2.68 2.01 -1.36 1.02 0 0 Z " fill="#C75CDA" transform="translate(347,700)"/>
<path d="M0 0 C2.86724686 0.57344937 3.8614515 0.8614515 6 3 C6.33 3.99 6.66 4.98 7 6 C4.50638429 4.79618552 2.31856917 3.54571278 0 2 C0 1.34 0 0.68 0 0 Z " fill="#5137AD" transform="translate(502,585)"/>
<path d="M0 0 C0.99 0.33 1.98 0.66 3 1 C1.7191375 4.64553172 0.83328987 6.16671013 -2 9 C-1.34 6.03 -0.68 3.06 0 0 Z " fill="#4176D2" transform="translate(688,728)"/>
<path d="M0 0 C0.33 0 0.66 0 1 0 C2.46845421 5.47332932 1.44038726 8.11922548 -1 13 C-2.40742022 10.18515955 -1.66652164 8.43063887 -1.0625 5.375 C-0.86785156 4.37210937 -0.67320312 3.36921875 -0.47265625 2.3359375 C-0.31667969 1.56507813 -0.16070312 0.79421875 0 0 Z " fill="#7859F6" transform="translate(270,355)"/>
<path d="M0 0 C0.66 0.99 1.32 1.98 2 3 C1.360625 3.268125 0.72125 3.53625 0.0625 3.8125 C-2.33131686 4.88667752 -2.33131686 4.88667752 -3 8 C-3.33 7.34 -3.66 6.68 -4 6 C-2.68 4.02 -1.36 2.04 0 0 Z " fill="#6957DB" transform="translate(288,310)"/>
<path d="M0 0 C0.99 1.32 1.98 2.64 3 4 C2.01 4.495 2.01 4.495 1 5 C0.67 3.35 0.34 1.7 0 0 Z " fill="#9953C5" transform="translate(368,818)"/>
<path d="M0 0 C0.33 0 0.66 0 1 0 C1 1.98 1 3.96 1 6 C0.67 6 0.34 6 0 6 C0 4.02 0 2.04 0 0 Z " fill="#67A8F0" transform="translate(716,644)"/>
<path d="M0 0 C0.33 0.66 0.66 1.32 1 2 C-0.32 2.33 -1.64 2.66 -3 3 C-2.01 2.01 -1.02 1.02 0 0 Z " fill="#9B92F0" transform="translate(468,169)"/>
<path d="M0 0 C1.32 0.33 2.64 0.66 4 1 C2.68 1.33 1.36 1.66 0 2 C0 1.34 0 0.68 0 0 Z " fill="#7168E1" transform="translate(561,365)"/>
<path d="M0 0 C1.65 0 3.3 0 5 0 C5 0.33 5 0.66 5 1 C3.35 1 1.7 1 0 1 C0 0.67 0 0.34 0 0 Z " fill="#A09AF3" transform="translate(500,162)"/>
<path d="M0 0 C0.99 0 1.98 0 3 0 C2.67 0.66 2.34 1.32 2 2 C1.34 1.34 0.68 0.68 0 0 Z " fill="#6B4FCB" transform="translate(401,548)"/>
<path d="M0 0 C0.66 0 1.32 0 2 0 C2 0.66 2 1.32 2 2 C1.34 2 0.68 2 0 2 C0 1.34 0 0.68 0 0 Z " fill="#68AAF1" transform="translate(681,536)"/>
<path d="M0 0 C0.99 0.33 1.98 0.66 3 1 C2.01 1 1.02 1 0 1 C0 0.67 0 0.34 0 0 Z " fill="#649EF3" transform="translate(613,480)"/>
<path d="M0 0 C1 4 1 4 1 4 Z " fill="#6F56D6" transform="translate(267,404)"/>
<path d="M0 0 C0 3 0 3 0 3 Z " fill="#A496F1" transform="translate(622,208)"/>
<path d="M0 0 C0.99 0.33 1.98 0.66 3 1 C2.01 1 1.02 1 0 1 C0 0.67 0 0.34 0 0 Z " fill="#A19AF0" transform="translate(557,168)"/>
<path d="M0 0 C0.66 0 1.32 0 2 0 C2 0.66 2 1.32 2 2 C1.34 2 0.68 2 0 2 C0 1.34 0 0.68 0 0 Z " fill="#9C92F1" transform="translate(470,168)"/>
<path d="M0 0 C0.33 0.66 0.66 1.32 1 2 C0.01 1.67 -0.98 1.34 -2 1 C-1.34 0.67 -0.68 0.34 0 0 Z " fill="#A39BF3" transform="translate(535,162)"/>
<path d="M0 0 C0.99 0 1.98 0 3 0 C2.67 0.66 2.34 1.32 2 2 C1.34 1.34 0.68 0.68 0 0 Z " fill="#A19AF3" transform="translate(514,161)"/>
<path d="M0 0 C3 1 3 1 3 1 Z " fill="#6B5CCA" transform="translate(473,853)"/>
<path d="M0 0 C3 1 3 1 3 1 Z " fill="#6E5BCB" transform="translate(465,853)"/>
<path d="M0 0 C3 1 3 1 3 1 Z " fill="#685ECD" transform="translate(485,852)"/>
<path d="M0 0 C0.66 0.66 1.32 1.32 2 2 C1.34 2 0.68 2 0 2 C0 1.34 0 0.68 0 0 Z " fill="#8B52C6" transform="translate(392,835)"/>
<path d="M0 0 C0.66 0 1.32 0 2 0 C1.67 0.66 1.34 1.32 1 2 C0.67 1.34 0.34 0.68 0 0 Z " fill="#A557C6" transform="translate(344,792)"/>
<path d="M0 0 C0.66 0.66 1.32 1.32 2 2 C1.34 2 0.68 2 0 2 C0 1.34 0 0.68 0 0 Z " fill="#A95BC7" transform="translate(339,782)"/>
<path d="" fill="#A95BC7" transform="translate(0,0)"/>
<path d="" fill="#B05FC7" transform="translate(0,0)"/>
<path d="" fill="#5C95EB" transform="translate(0,0)"/>
<path d="" fill="#629CEB" transform="translate(0,0)"/>
<path d="" fill="#5F9DEC" transform="translate(0,0)"/>
<path d="M0 0 C3 1 3 1 3 1 Z " fill="#BC61CE" transform="translate(416,665)"/>
<path d="" fill="#68A8EE" transform="translate(0,0)"/>
<path d="M0 0 C3 1 3 1 3 1 Z " fill="#5D7BE7" transform="translate(524,448)"/>
<path d="" fill="#6060DF" transform="translate(0,0)"/>
<path d="M0 0 C2 1 2 1 2 1 Z " fill="#7755C5" transform="translate(441,851)"/>
<path d="M0 0 C2 1 2 1 2 1 Z " fill="#5E64D4" transform="translate(529,845)"/>
<path d="" fill="#5D7DE1" transform="translate(0,0)"/>
<path d="" fill="#A255C4" transform="translate(0,0)"/>
<path d="M0 0 C2 1 2 1 2 1 Z " fill="#5C88E1" transform="translate(662,769)"/>
<path d="M0 0 C2 1 2 1 2 1 Z " fill="#BA60CF" transform="translate(424,664)"/>
<path d="" fill="#67A6EF" transform="translate(0,0)"/>
<path d="M0 0 C2 1 2 1 2 1 Z " fill="#614AC1" transform="translate(491,582)"/>
<path d="M0 0 C2 1 2 1 2 1 Z " fill="#614EC3" transform="translate(476,575)"/>
<path d="M0 0 C2 1 2 1 2 1 Z " fill="#694FCC" transform="translate(426,557)"/>
<path d="M0 0 C2 1 2 1 2 1 Z " fill="#6C4ECB" transform="translate(373,535)"/>
<path d="M0 0 C2 1 2 1 2 1 Z " fill="#66A8F5" transform="translate(659,512)"/>
<path d="" fill="#67A6F3" transform="translate(0,0)"/>
<path d="M0 0 C2 1 2 1 2 1 Z " fill="#6497F3" transform="translate(581,467)"/>
<path d="" fill="#6F55D2" transform="translate(0,0)"/>
<path d="" fill="#625DDB" transform="translate(0,0)"/>
<path d="" fill="#7055D5" transform="translate(0,0)"/>
<path d="" fill="#7157D7" transform="translate(0,0)"/>
<path d="M0 0 C2 1 2 1 2 1 Z " fill="#655DDE" transform="translate(510,380)"/>
<path d="M0 0 C2 1 2 1 2 1 Z " fill="#6861DC" transform="translate(532,372)"/>
<path d="" fill="#745DDB" transform="translate(0,0)"/>
<path d="M0 0 C2 1 2 1 2 1 Z " fill="#7169E2" transform="translate(566,364)"/>
<path d="M0 0 C2 1 2 1 2 1 Z " fill="#746DE3" transform="translate(574,363)"/>
<path d="M0 0 C2 1 2 1 2 1 Z " fill="#7975E0" transform="translate(589,361)"/>
<path d="M0 0 C2 1 2 1 2 1 Z " fill="#8076E1" transform="translate(605,359)"/>
<path d="" fill="#7460DC" transform="translate(0,0)"/>
<path d="M0 0 C2 1 2 1 2 1 Z " fill="#7D6DE5" transform="translate(305,288)"/>
<path d="M0 0 C2 1 2 1 2 1 Z " fill="#9D91EE" transform="translate(652,281)"/>
<path d="" fill="#9D92ED" transform="translate(0,0)"/>
<path d="M0 0 C2 1 2 1 2 1 Z " fill="#867AEC" transform="translate(369,256)"/>
<path d="" fill="#9E92EF" transform="translate(0,0)"/>
<path d="" fill="#9E92F1" transform="translate(0,0)"/>
<path d="" fill="#9F92F0" transform="translate(0,0)"/>
<path d="M0 0 C2 1 2 1 2 1 Z " fill="#A499F4" transform="translate(604,193)"/>
<path d="M0 0 C2 1 2 1 2 1 Z " fill="#A49AF1" transform="translate(590,184)"/>
<path d="M0 0 C2 1 2 1 2 1 Z " fill="#9289ED" transform="translate(440,184)"/>
<path d="M0 0 C2 1 2 1 2 1 Z " fill="#A69DF4" transform="translate(564,171)"/>
<path d="" fill="#A79DF3" transform="translate(0,0)"/>
<path d="M0 0 C2 1 2 1 2 1 Z " fill="#A69CF2" transform="translate(540,164)"/>
<path d="M0 0 C2 1 2 1 2 1 Z " fill="#A29AF3" transform="translate(529,162)"/>
<path d="M0 0 C2 1 2 1 2 1 Z " fill="#A29CF4" transform="translate(524,162)"/>
<path d="" fill="#A39CF3" transform="translate(0,0)"/>
<path d="" fill="#626464" transform="translate(0,0)"/>
<path d="" fill="#66606F" transform="translate(0,0)"/>
<path d="" fill="#6D5ECB" transform="translate(0,0)"/>
<path d="" fill="#695EC9" transform="translate(0,0)"/>
<path d="" fill="#765CCF" transform="translate(0,0)"/>
<path d="" fill="#7458CA" transform="translate(0,0)"/>
<path d="" fill="#7456C7" transform="translate(0,0)"/>
<path d="" fill="#7456C8" transform="translate(0,0)"/>
<path d="" fill="#7556C4" transform="translate(0,0)"/>
<path d="" fill="#6560CB" transform="translate(0,0)"/>
<path d="" fill="#7D57C6" transform="translate(0,0)"/>
<path d="" fill="#6164D2" transform="translate(0,0)"/>
<path d="" fill="#8153C9" transform="translate(0,0)"/>
<path d="" fill="#6264D7" transform="translate(0,0)"/>
<path d="" fill="#8354C1" transform="translate(0,0)"/>
<path d="" fill="#5E6DD4" transform="translate(0,0)"/>
<path d="" fill="#5F6AD6" transform="translate(0,0)"/>
<path d="" fill="#8951C4" transform="translate(0,0)"/>
<path d="" fill="#8852C4" transform="translate(0,0)"/>
<path d="" fill="#8B51C5" transform="translate(0,0)"/>
<path d="" fill="#9055C2" transform="translate(0,0)"/>
<path d="" fill="#5A6DD8" transform="translate(0,0)"/>
<path d="" fill="#8E54C2" transform="translate(0,0)"/>
<path d="" fill="#5C6ED5" transform="translate(0,0)"/>
<path d="" fill="#9351C2" transform="translate(0,0)"/>
<path d="" fill="#9655C4" transform="translate(0,0)"/>
<path d="" fill="#5874DC" transform="translate(0,0)"/>
<path d="" fill="#9C52C4" transform="translate(0,0)"/>
<path d="" fill="#9F55C8" transform="translate(0,0)"/>
<path d="" fill="#9D4FC4" transform="translate(0,0)"/>
<path d="" fill="#5978DC" transform="translate(0,0)"/>
<path d="" fill="#5778E0" transform="translate(0,0)"/>
<path d="" fill="#A157C5" transform="translate(0,0)"/>
<path d="" fill="#A057C5" transform="translate(0,0)"/>
<path d="" fill="#587AE1" transform="translate(0,0)"/>
<path d="" fill="#A059C5" transform="translate(0,0)"/>
<path d="" fill="#A357C5" transform="translate(0,0)"/>
<path d="" fill="#AA5CC7" transform="translate(0,0)"/>
<path d="" fill="#5A82DD" transform="translate(0,0)"/>
<path d="" fill="#5A86DD" transform="translate(0,0)"/>
<path d="" fill="#B061CB" transform="translate(0,0)"/>
<path d="" fill="#B161CB" transform="translate(0,0)"/>
<path d="" fill="#5F92E8" transform="translate(0,0)"/>
<path d="" fill="#B362CB" transform="translate(0,0)"/>
<path d="" fill="#B362CB" transform="translate(0,0)"/>
<path d="" fill="#5D94E9" transform="translate(0,0)"/>
<path d="" fill="#BA64CC" transform="translate(0,0)"/>
<path d="" fill="#5C92E8" transform="translate(0,0)"/>
<path d="" fill="#BB65CD" transform="translate(0,0)"/>
<path d="" fill="#6097EB" transform="translate(0,0)"/>
<path d="" fill="#5D95E9" transform="translate(0,0)"/>
<path d="" fill="#649BE8" transform="translate(0,0)"/>
<path d="" fill="#C164CF" transform="translate(0,0)"/>
<path d="" fill="#BD64D1" transform="translate(0,0)"/>
<path d="" fill="#64A2EF" transform="translate(0,0)"/>
<path d="" fill="#C266D2" transform="translate(0,0)"/>
<path d="" fill="#C665D5" transform="translate(0,0)"/>
<path d="" fill="#C268D0" transform="translate(0,0)"/>
<path d="" fill="#C269D0" transform="translate(0,0)"/>
<path d="" fill="#C568D5" transform="translate(0,0)"/>
<path d="" fill="#C164D2" transform="translate(0,0)"/>
<path d="" fill="#BE61D2" transform="translate(0,0)"/>
<path d="" fill="#68A4EA" transform="translate(0,0)"/>
<path d="" fill="#65A5EE" transform="translate(0,0)"/>
<path d="" fill="#64A6F0" transform="translate(0,0)"/>
<path d="" fill="#8447B7" transform="translate(0,0)"/>
<path d="" fill="#67A9EF" transform="translate(0,0)"/>
<path d="" fill="#6F42B8" transform="translate(0,0)"/>
<path d="" fill="#67A6EE" transform="translate(0,0)"/>
<path d="" fill="#6146B7" transform="translate(0,0)"/>
<path d="" fill="#6146BE" transform="translate(0,0)"/>
<path d="" fill="#5E49BA" transform="translate(0,0)"/>
<path d="" fill="#66AAEE" transform="translate(0,0)"/>
<path d="" fill="#5E4AC2" transform="translate(0,0)"/>
<path d="" fill="#624BC5" transform="translate(0,0)"/>
<path d="" fill="#64ABF1" transform="translate(0,0)"/>
<path d="" fill="#644EC5" transform="translate(0,0)"/>
<path d="" fill="#68A8F1" transform="translate(0,0)"/>
<path d="" fill="#6AAAF1" transform="translate(0,0)"/>
<path d="" fill="#67A8F1" transform="translate(0,0)"/>
<path d="" fill="#654FC4" transform="translate(0,0)"/>
<path d="" fill="#664BC7" transform="translate(0,0)"/>
<path d="" fill="#674EC8" transform="translate(0,0)"/>
<path d="" fill="#68A9F2" transform="translate(0,0)"/>
<path d="" fill="#69ABF0" transform="translate(0,0)"/>
<path d="" fill="#65ABEF" transform="translate(0,0)"/>
<path d="" fill="#6B50CB" transform="translate(0,0)"/>
<path d="" fill="#64A5EE" transform="translate(0,0)"/>
<path d="" fill="#704FCD" transform="translate(0,0)"/>
<path d="" fill="#68ACEF" transform="translate(0,0)"/>
<path d="" fill="#6D50CE" transform="translate(0,0)"/>
<path d="" fill="#6C4FCA" transform="translate(0,0)"/>
<path d="" fill="#67A7F0" transform="translate(0,0)"/>
<path d="" fill="#69A9F3" transform="translate(0,0)"/>
<path d="" fill="#6E4CCD" transform="translate(0,0)"/>
<path d="" fill="#6F4ECA" transform="translate(0,0)"/>
<path d="" fill="#67A8F7" transform="translate(0,0)"/>
<path d="" fill="#6C4BCA" transform="translate(0,0)"/>
<path d="" fill="#69A5F1" transform="translate(0,0)"/>
<path d="" fill="#6E4ACC" transform="translate(0,0)"/>
<path d="" fill="#6C48CA" transform="translate(0,0)"/>
<path d="" fill="#6B4ACA" transform="translate(0,0)"/>
<path d="" fill="#6C4CCE" transform="translate(0,0)"/>
<path d="" fill="#67A1F6" transform="translate(0,0)"/>
<path d="" fill="#6A4ACD" transform="translate(0,0)"/>
<path d="" fill="#669EF0" transform="translate(0,0)"/>
<path d="" fill="#679FF2" transform="translate(0,0)"/>
<path d="" fill="#689EF0" transform="translate(0,0)"/>
<path d="" fill="#639BF5" transform="translate(0,0)"/>
<path d="" fill="#6195F5" transform="translate(0,0)"/>
<path d="" fill="#6B4ECE" transform="translate(0,0)"/>
<path d="" fill="#6E4DCD" transform="translate(0,0)"/>
<path d="" fill="#6F4CCB" transform="translate(0,0)"/>
<path d="" fill="#628AEC" transform="translate(0,0)"/>
<path d="" fill="#6C4FD0" transform="translate(0,0)"/>
<path d="" fill="#6C4FD0" transform="translate(0,0)"/>
<path d="" fill="#5B7BE8" transform="translate(0,0)"/>
<path d="" fill="#5E73E6" transform="translate(0,0)"/>
<path d="" fill="#5E74E3" transform="translate(0,0)"/>
<path d="" fill="#5E71E3" transform="translate(0,0)"/>
<path d="" fill="#596EE0" transform="translate(0,0)"/>
<path d="" fill="#5D6FE4" transform="translate(0,0)"/>
<path d="" fill="#6E53D2" transform="translate(0,0)"/>
<path d="" fill="#6C50D0" transform="translate(0,0)"/>
<path d="" fill="#6B52CF" transform="translate(0,0)"/>
<path d="" fill="#6F53D4" transform="translate(0,0)"/>
<path d="" fill="#6D50CF" transform="translate(0,0)"/>
<path d="" fill="#6F55D4" transform="translate(0,0)"/>
<path d="" fill="#6062E2" transform="translate(0,0)"/>
<path d="" fill="#6F57D4" transform="translate(0,0)"/>
<path d="" fill="#5F60E0" transform="translate(0,0)"/>
<path d="" fill="#645EE3" transform="translate(0,0)"/>
<path d="" fill="#645EDD" transform="translate(0,0)"/>
<path d="" fill="#655FDF" transform="translate(0,0)"/>
<path d="" fill="#6763DE" transform="translate(0,0)"/>
<path d="" fill="#6964DB" transform="translate(0,0)"/>
<path d="" fill="#6C67DE" transform="translate(0,0)"/>
<path d="" fill="#6E67E3" transform="translate(0,0)"/>
<path d="" fill="#726BDF" transform="translate(0,0)"/>
<path d="" fill="#766EDF" transform="translate(0,0)"/>
<path d="" fill="#745EDB" transform="translate(0,0)"/>
<path d="" fill="#9183E9" transform="translate(0,0)"/>
<path d="" fill="#8F85EA" transform="translate(0,0)"/>
<path d="" fill="#7766DD" transform="translate(0,0)"/>
<path d="" fill="#7968E3" transform="translate(0,0)"/>
<path d="" fill="#7A68E3" transform="translate(0,0)"/>
<path d="" fill="#7B68E5" transform="translate(0,0)"/>
<path d="" fill="#7869E1" transform="translate(0,0)"/>
<path d="" fill="#998EEE" transform="translate(0,0)"/>
<path d="" fill="#7A6CE2" transform="translate(0,0)"/>
<path d="" fill="#7C6DE2" transform="translate(0,0)"/>
<path d="" fill="#9D8EF0" transform="translate(0,0)"/>
<path d="" fill="#9E91F2" transform="translate(0,0)"/>
<path d="" fill="#806FE6" transform="translate(0,0)"/>
<path d="" fill="#7C6FE1" transform="translate(0,0)"/>
<path d="" fill="#8071E9" transform="translate(0,0)"/>
<path d="" fill="#8072E8" transform="translate(0,0)"/>
<path d="" fill="#9B90EF" transform="translate(0,0)"/>
<path d="" fill="#8074E9" transform="translate(0,0)"/>
<path d="" fill="#A192EE" transform="translate(0,0)"/>
<path d="" fill="#8478E8" transform="translate(0,0)"/>
<path d="" fill="#8375EB" transform="translate(0,0)"/>
<path d="" fill="#8879EB" transform="translate(0,0)"/>
<path d="" fill="#877AEA" transform="translate(0,0)"/>
<path d="" fill="#877BEB" transform="translate(0,0)"/>
<path d="" fill="#867BEC" transform="translate(0,0)"/>
<path d="" fill="#887DEE" transform="translate(0,0)"/>
<path d="" fill="#8880EC" transform="translate(0,0)"/>
<path d="" fill="#887FEF" transform="translate(0,0)"/>
<path d="" fill="#8780ED" transform="translate(0,0)"/>
<path d="" fill="#8680E9" transform="translate(0,0)"/>
<path d="" fill="#A294F1" transform="translate(0,0)"/>
<path d="" fill="#A391EF" transform="translate(0,0)"/>
<path d="" fill="#A293EF" transform="translate(0,0)"/>
<path d="" fill="#A999F0" transform="translate(0,0)"/>
<path d="" fill="#A595F0" transform="translate(0,0)"/>
<path d="" fill="#A498F3" transform="translate(0,0)"/>
<path d="" fill="#69696A" transform="translate(0,0)"/>
<path d="" fill="#A398F1" transform="translate(0,0)"/>
<path d="" fill="#A498F0" transform="translate(0,0)"/>
<path d="" fill="#8A85EC" transform="translate(0,0)"/>
<path d="" fill="#8B83EC" transform="translate(0,0)"/>
<path d="" fill="#8A83EB" transform="translate(0,0)"/>
<path d="" fill="#A69BF5" transform="translate(0,0)"/>
<path d="" fill="#8F86EE" transform="translate(0,0)"/>
<path d="" fill="#A59BF3" transform="translate(0,0)"/>
<path d="" fill="#8D86ED" transform="translate(0,0)"/>
<path d="" fill="#A69DF2" transform="translate(0,0)"/>
<path d="" fill="#A699F4" transform="translate(0,0)"/>
<path d="" fill="#8E89ED" transform="translate(0,0)"/>
<path d="" fill="#A99BF6" transform="translate(0,0)"/>
<path d="" fill="#908AEC" transform="translate(0,0)"/>
<path d="" fill="#A89EF4" transform="translate(0,0)"/>
<path d="" fill="#A69CF5" transform="translate(0,0)"/>
<path d="" fill="#A49BF1" transform="translate(0,0)"/>
<path d="" fill="#948CEE" transform="translate(0,0)"/>
<path d="" fill="#A69CF4" transform="translate(0,0)"/>
<path d="" fill="#A49BF4" transform="translate(0,0)"/>
<path d="" fill="#A59BF3" transform="translate(0,0)"/>
<path d="" fill="#A39AF0" transform="translate(0,0)"/>
<path d="" fill="#9F97F2" transform="translate(0,0)"/>
<path d="" fill="#A39BF5" transform="translate(0,0)"/>
<path d="" fill="#A19BF2" transform="translate(0,0)"/>
<path d="" fill="#A49FF3" transform="translate(0,0)"/>
<path d="" fill="#9F99F2" transform="translate(0,0)"/>
</svg>
